<?xml version="1.0" encoding="UTF-8"?>
<svg xmlns="http://www.w3.org/2000/svg" xmlns:xlink="http://www.w3.org/1999/xlink" width="228.57" height="115.18" viewBox="0 0 228.57 115.18">
<defs>
<g>
<g id="glyph-0-0">
<path d="M 3.65625 -4.84375 L 1.546875 -4.84375 L 1.546875 -3.0625 L 3.375 -3.0625 L 3.375 -2.46875 L 1.546875 -2.46875 L 1.546875 -0.59375 L 3.796875 -0.59375 L 3.796875 0 L 0.796875 0 L 0.796875 -5.453125 L 3.734375 -5.453125 Z M 3.65625 -4.84375 "/>
</g>
<g id="glyph-0-1">
<path d="M 2.5625 -4.265625 C 2.707031 -4.265625 2.84375 -4.25 2.96875 -4.21875 L 2.84375 -3.5 C 2.71875 -3.53125 2.59375 -3.546875 2.46875 -3.546875 C 2.21875 -3.546875 2.007812 -3.453125 1.84375 -3.265625 C 1.6875 -3.078125 1.566406 -2.78125 1.484375 -2.375 L 1.484375 0 L 0.75 0 L 0.75 -4.171875 L 1.375 -4.171875 L 1.453125 -3.328125 C 1.554688 -3.628906 1.703125 -3.859375 1.890625 -4.015625 C 2.085938 -4.179688 2.3125 -4.265625 2.5625 -4.265625 Z M 2.5625 -4.265625 "/>
</g>
<g id="glyph-0-2">
<path d="M 2.3125 -4.265625 C 2.894531 -4.265625 3.347656 -4.066406 3.671875 -3.671875 C 4.003906 -3.285156 4.171875 -2.757812 4.171875 -2.09375 C 4.171875 -1.65625 4.09375 -1.269531 3.9375 -0.9375 C 3.789062 -0.613281 3.578125 -0.359375 3.296875 -0.171875 C 3.023438 0.00390625 2.695312 0.09375 2.3125 0.09375 C 1.726562 0.09375 1.269531 -0.0976562 0.9375 -0.484375 C 0.613281 -0.878906 0.453125 -1.410156 0.453125 -2.078125 C 0.453125 -2.515625 0.523438 -2.894531 0.671875 -3.21875 C 0.816406 -3.550781 1.03125 -3.804688 1.3125 -3.984375 C 1.59375 -4.171875 1.925781 -4.265625 2.3125 -4.265625 Z M 2.3125 -3.671875 C 1.59375 -3.671875 1.234375 -3.140625 1.234375 -2.078125 C 1.234375 -1.015625 1.59375 -0.484375 2.3125 -0.484375 C 3.03125 -0.484375 3.390625 -1.019531 3.390625 -2.09375 C 3.390625 -3.144531 3.03125 -3.671875 2.3125 -3.671875 Z M 2.3125 -3.671875 "/>
</g>
<g id="glyph-0-3">
<path d="M 1.875 -4.265625 C 2.164062 -4.265625 2.421875 -4.222656 2.640625 -4.140625 C 2.867188 -4.066406 3.085938 -3.945312 3.296875 -3.78125 L 2.984375 -3.328125 C 2.796875 -3.453125 2.613281 -3.539062 2.4375 -3.59375 C 2.269531 -3.65625 2.09375 -3.6875 1.90625 -3.6875 C 1.664062 -3.6875 1.476562 -3.632812 1.34375 -3.53125 C 1.207031 -3.4375 1.140625 -3.304688 1.140625 -3.140625 C 1.140625 -2.972656 1.203125 -2.835938 1.328125 -2.734375 C 1.460938 -2.640625 1.695312 -2.550781 2.03125 -2.46875 C 2.5 -2.351562 2.847656 -2.191406 3.078125 -1.984375 C 3.304688 -1.785156 3.421875 -1.515625 3.421875 -1.171875 C 3.421875 -0.753906 3.257812 -0.4375 2.9375 -0.21875 C 2.613281 -0.0078125 2.222656 0.09375 1.765625 0.09375 C 1.140625 0.09375 0.617188 -0.0859375 0.203125 -0.453125 L 0.578125 -0.890625 C 0.929688 -0.617188 1.320312 -0.484375 1.75 -0.484375 C 2.03125 -0.484375 2.25 -0.539062 2.40625 -0.65625 C 2.570312 -0.769531 2.65625 -0.925781 2.65625 -1.125 C 2.65625 -1.269531 2.625 -1.382812 2.5625 -1.46875 C 2.5 -1.550781 2.394531 -1.625 2.25 -1.6875 C 2.113281 -1.757812 1.910156 -1.832031 1.640625 -1.90625 C 1.191406 -2.019531 0.867188 -2.175781 0.671875 -2.375 C 0.472656 -2.570312 0.375 -2.816406 0.375 -3.109375 C 0.375 -3.328125 0.4375 -3.523438 0.5625 -3.703125 C 0.695312 -3.878906 0.878906 -4.015625 1.109375 -4.109375 C 1.335938 -4.210938 1.59375 -4.265625 1.875 -4.265625 Z M 1.875 -4.265625 "/>
</g>
<g id="glyph-0-4">
<path d="M 2.390625 -2.3125 L 1.546875 -2.3125 L 1.546875 0 L 0.796875 0 L 0.796875 -5.453125 L 2.21875 -5.453125 C 2.894531 -5.453125 3.410156 -5.320312 3.765625 -5.0625 C 4.117188 -4.800781 4.296875 -4.414062 4.296875 -3.90625 C 4.296875 -3.53125 4.195312 -3.222656 4 -2.984375 C 3.800781 -2.742188 3.503906 -2.5625 3.109375 -2.4375 L 4.578125 0 L 3.6875 0 Z M 2.296875 -2.890625 C 2.691406 -2.890625 2.988281 -2.96875 3.1875 -3.125 C 3.394531 -3.289062 3.5 -3.550781 3.5 -3.90625 C 3.5 -4.238281 3.394531 -4.476562 3.1875 -4.625 C 2.988281 -4.78125 2.664062 -4.859375 2.21875 -4.859375 L 1.546875 -4.859375 L 1.546875 -2.890625 Z M 2.296875 -2.890625 "/>
</g>
<g id="glyph-0-5">
<path d="M 3.890625 -2.203125 C 3.890625 -2.085938 3.882812 -1.960938 3.875 -1.828125 L 1.21875 -1.828125 C 1.25 -1.367188 1.363281 -1.03125 1.5625 -0.8125 C 1.769531 -0.601562 2.03125 -0.5 2.34375 -0.5 C 2.550781 -0.5 2.738281 -0.523438 2.90625 -0.578125 C 3.070312 -0.640625 3.25 -0.734375 3.4375 -0.859375 L 3.75 -0.421875 C 3.300781 -0.078125 2.816406 0.09375 2.296875 0.09375 C 1.710938 0.09375 1.257812 -0.09375 0.9375 -0.46875 C 0.613281 -0.851562 0.453125 -1.378906 0.453125 -2.046875 C 0.453125 -2.472656 0.519531 -2.851562 0.65625 -3.1875 C 0.800781 -3.519531 1.003906 -3.78125 1.265625 -3.96875 C 1.523438 -4.164062 1.832031 -4.265625 2.1875 -4.265625 C 2.738281 -4.265625 3.160156 -4.082031 3.453125 -3.71875 C 3.742188 -3.351562 3.890625 -2.847656 3.890625 -2.203125 Z M 3.171875 -2.421875 C 3.171875 -2.828125 3.085938 -3.140625 2.921875 -3.359375 C 2.765625 -3.578125 2.523438 -3.6875 2.203125 -3.6875 C 1.597656 -3.6875 1.269531 -3.25 1.21875 -2.375 L 3.171875 -2.375 Z M 3.171875 -2.421875 "/>
</g>
<g id="glyph-0-6">
<path d="M 3.984375 -5.84375 L 3.984375 0 L 3.34375 0 L 3.265625 -0.578125 C 3.128906 -0.367188 2.957031 -0.203125 2.75 -0.078125 C 2.539062 0.0351562 2.3125 0.09375 2.0625 0.09375 C 1.570312 0.09375 1.1875 -0.0976562 0.90625 -0.484375 C 0.625 -0.878906 0.484375 -1.40625 0.484375 -2.0625 C 0.484375 -2.488281 0.550781 -2.867188 0.6875 -3.203125 C 0.820312 -3.535156 1.007812 -3.796875 1.25 -3.984375 C 1.5 -4.171875 1.789062 -4.265625 2.125 -4.265625 C 2.550781 -4.265625 2.925781 -4.09375 3.25 -3.75 L 3.25 -5.921875 Z M 2.21875 -0.484375 C 2.4375 -0.484375 2.625 -0.535156 2.78125 -0.640625 C 2.945312 -0.742188 3.101562 -0.894531 3.25 -1.09375 L 3.25 -3.140625 C 3.113281 -3.316406 2.96875 -3.453125 2.8125 -3.546875 C 2.65625 -3.640625 2.476562 -3.6875 2.28125 -3.6875 C 1.957031 -3.6875 1.707031 -3.550781 1.53125 -3.28125 C 1.351562 -3.007812 1.265625 -2.609375 1.265625 -2.078125 C 1.265625 -1.535156 1.347656 -1.132812 1.515625 -0.875 C 1.679688 -0.613281 1.914062 -0.484375 2.21875 -0.484375 Z M 2.21875 -0.484375 "/>
</g>
<g id="glyph-0-7">
<path d="M 3.84375 0 L 3.21875 0 L 3.171875 -0.640625 C 3.015625 -0.390625 2.832031 -0.203125 2.625 -0.078125 C 2.414062 0.0351562 2.164062 0.09375 1.875 0.09375 C 1.507812 0.09375 1.222656 -0.015625 1.015625 -0.234375 C 0.816406 -0.453125 0.71875 -0.765625 0.71875 -1.171875 L 0.71875 -4.171875 L 1.4375 -4.171875 L 1.4375 -1.25 C 1.4375 -0.96875 1.484375 -0.765625 1.578125 -0.640625 C 1.679688 -0.523438 1.847656 -0.46875 2.078125 -0.46875 C 2.484375 -0.46875 2.832031 -0.707031 3.125 -1.1875 L 3.125 -4.171875 L 3.84375 -4.171875 Z M 3.84375 0 "/>
</g>
<g id="glyph-0-8">
<path d="M 2.265625 -4.265625 C 2.515625 -4.265625 2.738281 -4.226562 2.9375 -4.15625 C 3.144531 -4.082031 3.347656 -3.96875 3.546875 -3.8125 L 3.1875 -3.359375 C 3.039062 -3.460938 2.894531 -3.535156 2.75 -3.578125 C 2.613281 -3.628906 2.460938 -3.65625 2.296875 -3.65625 C 1.960938 -3.65625 1.703125 -3.519531 1.515625 -3.25 C 1.328125 -2.988281 1.234375 -2.59375 1.234375 -2.0625 C 1.234375 -1.53125 1.320312 -1.140625 1.5 -0.890625 C 1.6875 -0.640625 1.953125 -0.515625 2.296875 -0.515625 C 2.460938 -0.515625 2.613281 -0.539062 2.75 -0.59375 C 2.882812 -0.644531 3.035156 -0.726562 3.203125 -0.84375 L 3.546875 -0.359375 C 3.160156 -0.0546875 2.734375 0.09375 2.265625 0.09375 C 1.703125 0.09375 1.257812 -0.09375 0.9375 -0.46875 C 0.613281 -0.851562 0.453125 -1.378906 0.453125 -2.046875 C 0.453125 -2.492188 0.523438 -2.878906 0.671875 -3.203125 C 0.816406 -3.535156 1.023438 -3.796875 1.296875 -3.984375 C 1.566406 -4.171875 1.890625 -4.265625 2.265625 -4.265625 Z M 2.265625 -4.265625 "/>
</g>
<g id="glyph-0-9">
<path d="M 1.484375 0 L 0.75 0 L 0.75 -4.171875 L 1.484375 -4.171875 Z M 1.109375 -6.171875 C 1.265625 -6.171875 1.390625 -6.117188 1.484375 -6.015625 C 1.578125 -5.921875 1.625 -5.804688 1.625 -5.671875 C 1.625 -5.523438 1.578125 -5.40625 1.484375 -5.3125 C 1.390625 -5.21875 1.265625 -5.171875 1.109375 -5.171875 C 0.960938 -5.171875 0.84375 -5.21875 0.75 -5.3125 C 0.65625 -5.40625 0.609375 -5.523438 0.609375 -5.671875 C 0.609375 -5.804688 0.65625 -5.921875 0.75 -6.015625 C 0.84375 -6.117188 0.960938 -6.171875 1.109375 -6.171875 Z M 1.109375 -6.171875 "/>
</g>
<g id="glyph-0-10">
<path d="M 2.65625 -4.265625 C 3.132812 -4.265625 3.507812 -4.070312 3.78125 -3.6875 C 4.0625 -3.300781 4.203125 -2.769531 4.203125 -2.09375 C 4.203125 -1.65625 4.132812 -1.269531 4 -0.9375 C 3.875 -0.613281 3.6875 -0.359375 3.4375 -0.171875 C 3.1875 0.00390625 2.894531 0.09375 2.5625 0.09375 C 2.125 0.09375 1.757812 -0.0859375 1.46875 -0.453125 L 1.390625 0 L 0.75 0 L 0.75 -5.84375 L 1.484375 -5.921875 L 1.484375 -3.640625 C 1.773438 -4.054688 2.164062 -4.265625 2.65625 -4.265625 Z M 2.390625 -0.484375 C 2.710938 -0.484375 2.960938 -0.613281 3.140625 -0.875 C 3.328125 -1.132812 3.421875 -1.539062 3.421875 -2.09375 C 3.421875 -2.65625 3.335938 -3.0625 3.171875 -3.3125 C 3.003906 -3.5625 2.765625 -3.6875 2.453125 -3.6875 C 2.078125 -3.6875 1.753906 -3.46875 1.484375 -3.03125 L 1.484375 -1.046875 C 1.585938 -0.867188 1.71875 -0.726562 1.875 -0.625 C 2.039062 -0.53125 2.210938 -0.484375 2.390625 -0.484375 Z M 2.390625 -0.484375 "/>
</g>
<g id="glyph-0-11">
<path d="M 1.578125 0.09375 C 1.304688 0.09375 1.09375 0.015625 0.9375 -0.140625 C 0.789062 -0.304688 0.71875 -0.535156 0.71875 -0.828125 L 0.71875 -5.84375 L 1.4375 -5.921875 L 1.4375 -0.84375 C 1.4375 -0.726562 1.457031 -0.640625 1.5 -0.578125 C 1.539062 -0.523438 1.609375 -0.5 1.703125 -0.5 C 1.796875 -0.5 1.882812 -0.515625 1.96875 -0.546875 L 2.15625 -0.046875 C 1.976562 0.046875 1.785156 0.09375 1.578125 0.09375 Z M 1.578125 0.09375 "/>
</g>
<g id="glyph-0-12">
<path d="M 1.546875 0 L 0.796875 0 L 0.796875 -5.453125 L 1.546875 -5.453125 Z M 1.546875 0 "/>
</g>
<g id="glyph-0-13">
<path d="M 3.1875 -2.875 C 3.5625 -2.8125 3.863281 -2.679688 4.09375 -2.484375 C 4.332031 -2.285156 4.453125 -1.972656 4.453125 -1.546875 C 4.453125 -0.515625 3.734375 0 2.296875 0 L 0.796875 0 L 0.796875 -5.453125 L 2.078125 -5.453125 C 2.765625 -5.453125 3.289062 -5.335938 3.65625 -5.109375 C 4.03125 -4.878906 4.21875 -4.535156 4.21875 -4.078125 C 4.21875 -3.753906 4.117188 -3.488281 3.921875 -3.28125 C 3.722656 -3.070312 3.476562 -2.9375 3.1875 -2.875 Z M 1.546875 -4.859375 L 1.546875 -3.140625 L 2.359375 -3.140625 C 2.679688 -3.140625 2.941406 -3.210938 3.140625 -3.359375 C 3.347656 -3.515625 3.453125 -3.734375 3.453125 -4.015625 C 3.453125 -4.328125 3.34375 -4.546875 3.125 -4.671875 C 2.914062 -4.796875 2.59375 -4.859375 2.15625 -4.859375 Z M 2.296875 -0.59375 C 2.734375 -0.59375 3.066406 -0.660156 3.296875 -0.796875 C 3.535156 -0.929688 3.65625 -1.179688 3.65625 -1.546875 C 3.65625 -1.910156 3.539062 -2.171875 3.3125 -2.328125 C 3.09375 -2.484375 2.800781 -2.5625 2.4375 -2.5625 L 1.546875 -2.5625 L 1.546875 -0.59375 Z M 2.296875 -0.59375 "/>
</g>
<g id="glyph-0-14">
<path d="M 3.5625 -0.96875 C 3.5625 -0.800781 3.585938 -0.675781 3.640625 -0.59375 C 3.703125 -0.507812 3.789062 -0.445312 3.90625 -0.40625 L 3.734375 0.09375 C 3.523438 0.0703125 3.351562 0.015625 3.21875 -0.078125 C 3.082031 -0.179688 2.984375 -0.332031 2.921875 -0.53125 C 2.640625 -0.113281 2.226562 0.09375 1.6875 0.09375 C 1.269531 0.09375 0.941406 -0.0195312 0.703125 -0.25 C 0.472656 -0.476562 0.359375 -0.78125 0.359375 -1.15625 C 0.359375 -1.601562 0.515625 -1.941406 0.828125 -2.171875 C 1.148438 -2.410156 1.601562 -2.53125 2.1875 -2.53125 L 2.828125 -2.53125 L 2.828125 -2.84375 C 2.828125 -3.132812 2.753906 -3.34375 2.609375 -3.46875 C 2.472656 -3.601562 2.253906 -3.671875 1.953125 -3.671875 C 1.648438 -3.671875 1.28125 -3.597656 0.84375 -3.453125 L 0.65625 -3.984375 C 1.175781 -4.171875 1.65625 -4.265625 2.09375 -4.265625 C 2.582031 -4.265625 2.945312 -4.144531 3.1875 -3.90625 C 3.4375 -3.664062 3.5625 -3.320312 3.5625 -2.875 Z M 1.84375 -0.453125 C 2.257812 -0.453125 2.585938 -0.664062 2.828125 -1.09375 L 2.828125 -2.0625 L 2.28125 -2.0625 C 1.507812 -2.0625 1.125 -1.773438 1.125 -1.203125 C 1.125 -0.953125 1.1875 -0.765625 1.3125 -0.640625 C 1.4375 -0.515625 1.613281 -0.453125 1.84375 -0.453125 Z M 1.84375 -0.453125 "/>
</g>
<g id="glyph-0-15">
<path d="M 2.609375 0 L 1.796875 0 L 0.046875 -5.453125 L 0.859375 -5.453125 L 2.21875 -0.8125 L 3.59375 -5.453125 L 4.34375 -5.453125 Z M 2.609375 0 "/>
</g>
<g id="glyph-0-16">
<path d="M 2.71875 -4.265625 C 3.09375 -4.265625 3.382812 -4.148438 3.59375 -3.921875 C 3.8125 -3.691406 3.921875 -3.378906 3.921875 -2.984375 L 3.921875 0 L 3.1875 0 L 3.1875 -2.890625 C 3.1875 -3.179688 3.128906 -3.382812 3.015625 -3.5 C 2.910156 -3.625 2.75 -3.6875 2.53125 -3.6875 C 2.3125 -3.6875 2.117188 -3.625 1.953125 -3.5 C 1.785156 -3.375 1.628906 -3.191406 1.484375 -2.953125 L 1.484375 0 L 0.75 0 L 0.75 -4.171875 L 1.375 -4.171875 L 1.4375 -3.546875 C 1.582031 -3.765625 1.765625 -3.9375 1.984375 -4.0625 C 2.203125 -4.195312 2.445312 -4.265625 2.71875 -4.265625 Z M 2.71875 -4.265625 "/>
</g>
</g>
<clipPath id="clip-0">
<path clip-rule="nonzero" d="M 131 31 L 227.546875 31 L 227.546875 83 L 131 83 Z M 131 31 "/>
</clipPath>
<clipPath id="clip-1">
<path clip-rule="nonzero" d="M 0.59375 74 L 69 74 L 69 114.367188 L 0.59375 114.367188 Z M 0.59375 74 "/>
</clipPath>
<clipPath id="clip-2">
<path clip-rule="nonzero" d="M 74 74 L 154 74 L 154 114.367188 L 74 114.367188 Z M 74 74 "/>
</clipPath>
</defs>
<path fill="none" stroke-width="0.79701" stroke-linecap="butt" stroke-linejoin="miter" stroke="rgb(0%, 0%, 0%)" stroke-opacity="1" stroke-miterlimit="10" d="M 0.000883704 1.990768 L 0.000883704 26.3544 C 0.000883704 27.455937 0.893915 28.345034 1.991518 28.345034 L 83.048885 28.345034 C 84.146487 28.345034 85.039519 27.455937 85.039519 26.3544 L 85.039519 1.990768 C 85.039519 0.893166 84.146487 0.000134008 83.048885 0.000134008 L 1.991518 0.000134008 C 0.893915 0.000134008 0.000883704 0.893166 0.000883704 1.990768 Z M 0.000883704 1.990768 " transform="matrix(0.992931, 0, 0, -0.992931, 85.924904, 29.035289)"/>
<path fill="none" stroke-width="0.79701" stroke-linecap="butt" stroke-linejoin="miter" stroke="rgb(0%, 0%, 0%)" stroke-opacity="1" stroke-miterlimit="10" d="M -56.692851 -40.528549 L -56.692851 -16.164917 C -56.692851 -15.067315 -55.79982 -14.174283 -54.702217 -14.174283 L 26.35515 -14.174283 C 27.456687 -14.174283 28.345784 -15.067315 28.345784 -16.164917 L 28.345784 -40.528549 C 28.345784 -41.626152 27.456687 -42.519184 26.35515 -42.519184 L -54.702217 -42.519184 C -55.79982 -42.519184 -56.692851 -41.626152 -56.692851 -40.528549 Z M -56.692851 -40.528549 " transform="matrix(0.992931, 0, 0, -0.992931, 85.924904, 29.035289)"/>
<g clip-path="url(#clip-0)">
<path fill="none" stroke-width="0.79701" stroke-linecap="butt" stroke-linejoin="miter" stroke="rgb(0%, 0%, 0%)" stroke-opacity="1" stroke-miterlimit="10" d="M 56.694619 -40.528549 L 56.694619 -16.164917 C 56.694619 -15.067315 57.58765 -14.174283 58.685253 -14.174283 L 139.742619 -14.174283 C 140.840222 -14.174283 141.733254 -15.067315 141.733254 -16.164917 L 141.733254 -40.528549 C 141.733254 -41.626152 140.840222 -42.519184 139.742619 -42.519184 L 58.685253 -42.519184 C 57.58765 -42.519184 56.694619 -41.626152 56.694619 -40.528549 Z M 56.694619 -40.528549 " transform="matrix(0.992931, 0, 0, -0.992931, 85.924904, 29.035289)"/>
</g>
<g clip-path="url(#clip-1)">
<path fill="none" stroke-width="0.79701" stroke-linecap="butt" stroke-linejoin="miter" stroke="rgb(0%, 0%, 0%)" stroke-opacity="1" stroke-miterlimit="10" d="M -85.041686 -83.047867 L -85.041686 -58.684235 C -85.041686 -57.586632 -84.148654 -56.693601 -83.047117 -56.693601 L -30.338585 -56.693601 C -29.237048 -56.693601 -28.347951 -57.586632 -28.347951 -58.684235 L -28.347951 -83.047867 C -28.347951 -84.149404 -29.237048 -85.038501 -30.338585 -85.038501 L -83.047117 -85.038501 C -84.148654 -85.038501 -85.041686 -84.149404 -85.041686 -83.047867 Z M -85.041686 -83.047867 " transform="matrix(0.992931, 0, 0, -0.992931, 85.924904, 29.035289)"/>
</g>
<g clip-path="url(#clip-2)">
<path fill="none" stroke-width="0.79701" stroke-linecap="butt" stroke-linejoin="miter" stroke="rgb(0%, 0%, 0%)" stroke-opacity="1" stroke-miterlimit="10" d="M 0.000883704 -83.047867 L 0.000883704 -58.684235 C 0.000883704 -57.586632 0.893915 -56.693601 1.991518 -56.693601 L 54.70005 -56.693601 C 55.801587 -56.693601 56.694619 -57.586632 56.694619 -58.684235 L 56.694619 -83.047867 C 56.694619 -84.149404 55.801587 -85.038501 54.70005 -85.038501 L 1.991518 -85.038501 C 0.893915 -85.038501 0.000883704 -84.149404 0.000883704 -83.047867 Z M 0.000883704 -83.047867 " transform="matrix(0.992931, 0, 0, -0.992931, 85.924904, 29.035289)"/>
</g>
<path fill-rule="nonzero" fill="rgb(75%, 0%, 25%)" fill-opacity="1" d="M 114.070312 21.03125 L 142.21875 21.03125 L 142.21875 8.890625 L 114.070312 8.890625 Z M 114.070312 21.03125 "/>
<g fill="rgb(0%, 0%, 0%)" fill-opacity="1">
<use xlink:href="#glyph-0-0" x="117.366065" y="17.641406"/>
<use xlink:href="#glyph-0-1" x="121.599926" y="17.641406"/>
<use xlink:href="#glyph-0-1" x="124.654638" y="17.641406"/>
</g>
<g fill="rgb(0%, 0%, 0%)" fill-opacity="1">
<use xlink:href="#glyph-0-2" x="127.630211" y="17.641406"/>
<use xlink:href="#glyph-0-1" x="132.251847" y="17.641406"/>
</g>
<g fill="rgb(0%, 0%, 0%)" fill-opacity="1">
<use xlink:href="#glyph-0-3" x="135.227421" y="17.641406"/>
</g>
<path fill-rule="nonzero" fill="rgb(78.088379%, 75.881958%, 39.068604%)" fill-opacity="1" d="M 38.8125 63.613281 L 104.890625 63.613281 L 104.890625 50.75 L 38.8125 50.75 Z M 38.8125 63.613281 "/>
<g fill="rgb(0%, 0%, 0%)" fill-opacity="1">
<use xlink:href="#glyph-0-4" x="42.111822" y="60.220274"/>
</g>
<g fill="rgb(0%, 0%, 0%)" fill-opacity="1">
<use xlink:href="#glyph-0-5" x="46.820509" y="60.220274"/>
<use xlink:href="#glyph-0-6" x="51.173077" y="60.220274"/>
<use xlink:href="#glyph-0-7" x="55.905505" y="60.220274"/>
<use xlink:href="#glyph-0-8" x="60.511313" y="60.220274"/>
<use xlink:href="#glyph-0-9" x="64.29409" y="60.220274"/>
<use xlink:href="#glyph-0-10" x="66.52577" y="60.220274"/>
<use xlink:href="#glyph-0-11" x="71.226544" y="60.220274"/>
</g>
<g fill="rgb(0%, 0%, 0%)" fill-opacity="1">
<use xlink:href="#glyph-0-5" x="73.466138" y="60.220274"/>
</g>
<g fill="rgb(0%, 0%, 0%)" fill-opacity="1">
<use xlink:href="#glyph-0-5" x="79.907938" y="60.220274"/>
<use xlink:href="#glyph-0-1" x="84.260506" y="60.220274"/>
<use xlink:href="#glyph-0-1" x="87.315217" y="60.220274"/>
</g>
<g fill="rgb(0%, 0%, 0%)" fill-opacity="1">
<use xlink:href="#glyph-0-2" x="90.298704" y="60.220274"/>
<use xlink:href="#glyph-0-1" x="94.92034" y="60.220274"/>
</g>
<g fill="rgb(0%, 0%, 0%)" fill-opacity="1">
<use xlink:href="#glyph-0-3" x="97.895914" y="60.220274"/>
</g>
<path fill-rule="nonzero" fill="rgb(0%, 67.83905%, 93.728638%)" fill-opacity="1" d="M 149.570312 63.613281 L 219.304688 63.613281 L 219.304688 50.75 L 149.570312 50.75 Z M 149.570312 63.613281 "/>
<g fill="rgb(0%, 0%, 0%)" fill-opacity="1">
<use xlink:href="#glyph-0-12" x="152.869307" y="60.220274"/>
<use xlink:href="#glyph-0-1" x="155.203866" y="60.220274"/>
<use xlink:href="#glyph-0-1" x="158.258577" y="60.220274"/>
</g>
<g fill="rgb(0%, 0%, 0%)" fill-opacity="1">
<use xlink:href="#glyph-0-5" x="161.234151" y="60.220274"/>
<use xlink:href="#glyph-0-6" x="165.586719" y="60.220274"/>
<use xlink:href="#glyph-0-7" x="170.319147" y="60.220274"/>
<use xlink:href="#glyph-0-8" x="174.924955" y="60.220274"/>
<use xlink:href="#glyph-0-9" x="178.707732" y="60.220274"/>
<use xlink:href="#glyph-0-10" x="180.939413" y="60.220274"/>
<use xlink:href="#glyph-0-11" x="185.640186" y="60.220274"/>
</g>
<g fill="rgb(0%, 0%, 0%)" fill-opacity="1">
<use xlink:href="#glyph-0-5" x="187.87978" y="60.220274"/>
</g>
<g fill="rgb(0%, 0%, 0%)" fill-opacity="1">
<use xlink:href="#glyph-0-5" x="194.32158" y="60.220274"/>
<use xlink:href="#glyph-0-1" x="198.674148" y="60.220274"/>
<use xlink:href="#glyph-0-1" x="201.728859" y="60.220274"/>
</g>
<g fill="rgb(0%, 0%, 0%)" fill-opacity="1">
<use xlink:href="#glyph-0-2" x="204.712346" y="60.220274"/>
<use xlink:href="#glyph-0-1" x="209.333982" y="60.220274"/>
</g>
<g fill="rgb(0%, 0%, 0%)" fill-opacity="1">
<use xlink:href="#glyph-0-3" x="212.309556" y="60.220274"/>
</g>
<path fill-rule="nonzero" fill="rgb(80.000305%, 89.865112%, 24.768066%)" fill-opacity="1" d="M 18.8125 105.832031 L 40.453125 105.832031 L 40.453125 92.96875 L 18.8125 92.96875 Z M 18.8125 105.832031 "/>
<g fill="rgb(0%, 0%, 0%)" fill-opacity="1">
<use xlink:href="#glyph-0-13" x="22.110219" y="102.440695"/>
<use xlink:href="#glyph-0-9" x="26.921785" y="102.440695"/>
<use xlink:href="#glyph-0-14" x="29.153465" y="102.440695"/>
<use xlink:href="#glyph-0-3" x="33.45855" y="102.440695"/>
</g>
<path fill-rule="nonzero" fill="rgb(80.000305%, 89.865112%, 24.768066%)" fill-opacity="1" d="M 95.4375 105.832031 L 132.707031 105.832031 L 132.707031 92.96875 L 95.4375 92.96875 Z M 95.4375 105.832031 "/>
<g fill="rgb(0%, 0%, 0%)" fill-opacity="1">
<use xlink:href="#glyph-0-15" x="98.734707" y="102.440695"/>
</g>
<g fill="rgb(0%, 0%, 0%)" fill-opacity="1">
<use xlink:href="#glyph-0-14" x="102.818207" y="102.440695"/>
<use xlink:href="#glyph-0-1" x="107.123292" y="102.440695"/>
<use xlink:href="#glyph-0-9" x="110.178004" y="102.440695"/>
<use xlink:href="#glyph-0-14" x="112.409684" y="102.440695"/>
<use xlink:href="#glyph-0-16" x="116.714769" y="102.440695"/>
<use xlink:href="#glyph-0-8" x="121.352232" y="102.440695"/>
</g>
<g fill="rgb(0%, 0%, 0%)" fill-opacity="1">
<use xlink:href="#glyph-0-5" x="125.055872" y="102.440695"/>
</g>
<path fill="none" stroke-width="0.79701" stroke-linecap="butt" stroke-linejoin="miter" stroke="rgb(0%, 0%, 0%)" stroke-opacity="1" stroke-miterlimit="10" d="M 0.000883704 14.174551 C -12.407141 14.174551 -14.173534 -1.766259 -14.173534 -9.512422 " transform="matrix(0.992931, 0, 0, -0.992931, 85.924904, 29.035289)"/>
<path fill-rule="nonzero" fill="rgb(0%, 0%, 0%)" fill-opacity="1" d="M 71.851562 43.109375 C 72.109375 41.738281 72.878906 39.507812 73.78125 37.964844 L 69.921875 37.964844 C 70.824219 39.507812 71.59375 41.738281 71.851562 43.109375 "/>
<path fill="none" stroke-width="0.79701" stroke-linecap="butt" stroke-linejoin="miter" stroke="rgb(0%, 0%, 0%)" stroke-opacity="1" stroke-miterlimit="10" d="M 85.039519 14.174551 C 97.447543 14.174551 99.213936 -1.766259 99.213936 -9.512422 " transform="matrix(0.992931, 0, 0, -0.992931, 85.924904, 29.035289)"/>
<path fill-rule="nonzero" fill="rgb(0%, 0%, 0%)" fill-opacity="1" d="M 184.4375 43.109375 C 184.695312 41.738281 185.464844 39.507812 186.367188 37.964844 L 182.507812 37.964844 C 183.410156 39.507812 184.179688 41.738281 184.4375 43.109375 "/>
<path fill="none" stroke-width="0.79701" stroke-linecap="butt" stroke-linejoin="miter" stroke="rgb(0%, 0%, 0%)" stroke-opacity="1" stroke-miterlimit="10" d="M -56.692851 -28.3487 C -67.747559 -28.3487 -56.692851 -45.638893 -56.692851 -52.03174 " transform="matrix(0.992931, 0, 0, -0.992931, 85.924904, 29.035289)"/>
<path fill-rule="nonzero" fill="rgb(0%, 0%, 0%)" fill-opacity="1" d="M 29.632812 85.328125 C 29.890625 83.957031 30.660156 81.726562 31.5625 80.183594 L 27.703125 80.183594 C 28.601562 81.726562 29.375 83.957031 29.632812 85.328125 "/>
<path fill="none" stroke-width="0.79701" stroke-linecap="butt" stroke-linejoin="miter" stroke="rgb(0%, 0%, 0%)" stroke-opacity="1" stroke-miterlimit="10" d="M 28.345784 -28.3487 C 39.400492 -28.3487 28.345784 -45.638893 28.345784 -52.03174 " transform="matrix(0.992931, 0, 0, -0.992931, 85.924904, 29.035289)"/>
<path fill-rule="nonzero" fill="rgb(0%, 0%, 0%)" fill-opacity="1" d="M 114.070312 85.328125 C 114.328125 83.957031 115.101562 81.726562 116 80.183594 L 112.140625 80.183594 C 113.042969 81.726562 113.8125 83.957031 114.070312 85.328125 "/>
</svg>
