<?xml version="1.0" encoding="UTF-8"?>
<svg xmlns="http://www.w3.org/2000/svg" xmlns:xlink="http://www.w3.org/1999/xlink" width="398.64" height="187.66" viewBox="0 0 398.64 187.66">
<defs>
<g>
<g id="glyph-0-0">
<path d="M 4.953125 -1.875 C 4.953125 -2.53125 4.65625 -3 4.4375 -3.234375 C 3.96875 -3.734375 3.640625 -3.828125 2.71875 -4.046875 C 2.140625 -4.1875 1.984375 -4.234375 1.6875 -4.484375 C 1.625 -4.546875 1.34375 -4.84375 1.34375 -5.28125 C 1.34375 -5.859375 1.875 -6.453125 2.796875 -6.453125 C 3.625 -6.453125 4.109375 -6.125 4.46875 -5.828125 L 4.625 -6.625 C 4.078125 -6.953125 3.53125 -7.109375 2.796875 -7.109375 C 1.421875 -7.109375 0.5625 -6.140625 0.5625 -5.15625 C 0.5625 -4.734375 0.703125 -4.3125 1.09375 -3.890625 C 1.515625 -3.453125 1.953125 -3.328125 2.53125 -3.1875 C 3.375 -2.984375 3.484375 -2.953125 3.75 -2.703125 C 3.953125 -2.53125 4.171875 -2.203125 4.171875 -1.78125 C 4.171875 -1.125 3.625 -0.46875 2.71875 -0.46875 C 2.3125 -0.46875 1.421875 -0.5625 0.59375 -1.265625 L 0.4375 -0.46875 C 1.3125 0.078125 2.109375 0.21875 2.734375 0.21875 C 4.046875 0.21875 4.953125 -0.78125 4.953125 -1.875 Z M 4.953125 -1.875 "/>
</g>
<g id="glyph-0-1">
<path d="M 3.296875 -0.265625 L 3.140625 -0.859375 C 2.875 -0.640625 2.5625 -0.53125 2.25 -0.53125 C 1.875 -0.53125 1.734375 -0.828125 1.734375 -1.34375 L 1.734375 -3.828125 L 3.140625 -3.828125 L 3.140625 -4.40625 L 1.734375 -4.40625 L 1.734375 -5.671875 L 1.046875 -5.671875 L 1.046875 -4.40625 L 0.1875 -4.40625 L 0.1875 -3.828125 L 1.03125 -3.828125 L 1.03125 -1.1875 C 1.03125 -0.59375 1.15625 0.109375 1.84375 0.109375 C 2.546875 0.109375 3.046875 -0.140625 3.296875 -0.265625 Z M 3.296875 -0.265625 "/>
</g>
<g id="glyph-0-2">
<path d="M 4.0625 0 L 4.0625 -2.875 C 4.0625 -3.890625 3.34375 -4.578125 2.421875 -4.578125 C 1.78125 -4.578125 1.328125 -4.421875 0.859375 -4.15625 L 0.921875 -3.5 C 1.4375 -3.859375 1.9375 -4 2.421875 -4 C 2.890625 -4 3.296875 -3.59375 3.296875 -2.859375 L 3.296875 -2.4375 C 1.796875 -2.421875 0.53125 -2 0.53125 -1.125 C 0.53125 -0.703125 0.8125 0.109375 1.671875 0.109375 C 1.8125 0.109375 2.75 0.09375 3.3125 -0.359375 L 3.3125 0 Z M 3.296875 -1.3125 C 3.296875 -1.125 3.296875 -0.875 2.953125 -0.6875 C 2.65625 -0.5 2.28125 -0.5 2.171875 -0.5 C 1.703125 -0.5 1.25 -0.71875 1.25 -1.140625 C 1.25 -1.84375 2.859375 -1.90625 3.296875 -1.921875 Z M 3.296875 -1.3125 "/>
</g>
<g id="glyph-0-3">
<path d="M 3.25 -3.859375 L 3.25 -4.515625 C 2.359375 -4.515625 1.8125 -4.03125 1.515625 -3.5625 L 1.515625 -4.46875 L 0.8125 -4.46875 L 0.8125 0 L 1.5625 0 L 1.5625 -2.125 C 1.5625 -3.125 2.28125 -3.828125 3.25 -3.859375 Z M 3.25 -3.859375 "/>
</g>
<g id="glyph-0-4">
<path d="M 4.21875 0 L 4.21875 -0.578125 L 2.96875 -0.578125 L 2.96875 -6.734375 L 2.765625 -6.734375 C 2.1875 -6.125 1.359375 -6.109375 0.890625 -6.078125 L 0.890625 -5.5 C 1.21875 -5.515625 1.6875 -5.53125 2.1875 -5.75 L 2.1875 -0.578125 L 0.9375 -0.578125 L 0.9375 0 Z M 4.21875 0 "/>
</g>
<g id="glyph-0-5">
<path d="M 1.78125 0 L 1.78125 -0.828125 L 0.96875 -0.828125 L 0.96875 0 Z M 1.78125 0 "/>
</g>
<g id="glyph-0-6">
<path d="M 1.8125 0 L 1.8125 -6.890625 L 0.9375 -6.890625 L 0.9375 0 Z M 1.8125 0 "/>
</g>
<g id="glyph-0-7">
<path d="M 4.328125 0 L 4.328125 -2.96875 C 4.328125 -3.625 4.171875 -4.515625 2.96875 -4.515625 C 2.0625 -4.515625 1.578125 -3.84375 1.515625 -3.765625 L 1.515625 -4.46875 L 0.8125 -4.46875 L 0.8125 0 L 1.578125 0 L 1.578125 -2.4375 C 1.578125 -3.09375 1.828125 -3.921875 2.578125 -3.921875 C 3.53125 -3.921875 3.546875 -3.203125 3.546875 -2.890625 L 3.546875 0 Z M 4.328125 0 "/>
</g>
<g id="glyph-0-8">
<path d="M 1.546875 0 L 1.546875 -4.40625 L 0.8125 -4.40625 L 0.8125 0 Z M 1.625 -5.625 L 1.625 -6.515625 L 0.75 -6.515625 L 0.75 -5.625 Z M 1.625 -5.625 "/>
</g>
<g id="glyph-0-9">
<path d="M 1.546875 0 L 1.546875 -6.890625 L 0.8125 -6.890625 L 0.8125 0 Z M 1.546875 0 "/>
</g>
<g id="glyph-0-10">
<path d="M 4 0 L 4 -0.609375 L 2.53125 -0.609375 C 2.421875 -0.609375 2.296875 -0.609375 2.171875 -0.609375 L 1.328125 -0.609375 L 3.96875 -4.03125 L 3.96875 -4.40625 L 0.421875 -4.40625 L 0.421875 -3.828125 L 1.796875 -3.828125 C 1.921875 -3.828125 2.03125 -3.828125 2.15625 -3.828125 L 2.9375 -3.828125 L 0.28125 -0.40625 L 0.28125 0 Z M 4 0 "/>
</g>
<g id="glyph-0-11">
<path d="M 4.109375 -2.171875 C 4.109375 -2.515625 4.109375 -3.265625 3.71875 -3.859375 C 3.3125 -4.46875 2.703125 -4.578125 2.34375 -4.578125 C 1.25 -4.578125 0.34375 -3.53125 0.34375 -2.25 C 0.34375 -0.9375 1.296875 0.109375 2.5 0.109375 C 3.125 0.109375 3.6875 -0.125 4.078125 -0.40625 L 4.015625 -1.046875 C 3.390625 -0.53125 2.734375 -0.5 2.5 -0.5 C 1.703125 -0.5 1.078125 -1.203125 1.046875 -2.171875 Z M 3.546875 -2.71875 L 1.09375 -2.71875 C 1.25 -3.484375 1.78125 -3.96875 2.34375 -3.96875 C 2.859375 -3.96875 3.421875 -3.640625 3.546875 -2.71875 Z M 3.546875 -2.71875 "/>
</g>
<g id="glyph-0-12">
<path d="M 7.6875 0 L 7.6875 -6.890625 L 6.5625 -6.890625 L 5.265625 -3.53125 C 4.921875 -2.625 4.453125 -1.390625 4.34375 -0.921875 L 4.328125 -0.921875 C 4.28125 -1.140625 4.15625 -1.5 4.015625 -1.921875 L 2.453125 -6.03125 L 2.109375 -6.890625 L 1 -6.890625 L 1 0 L 1.765625 0 L 1.765625 -6.15625 L 1.78125 -6.15625 C 1.84375 -5.84375 2.234375 -4.765625 2.5 -4.078125 L 3.96875 -0.21875 L 4.6875 -0.21875 L 6.015625 -3.671875 L 6.484375 -4.9375 C 6.59375 -5.234375 6.859375 -5.9375 6.90625 -6.171875 L 6.921875 -6.15625 L 6.921875 0 Z M 7.6875 0 "/>
</g>
<g id="glyph-0-13">
<path d="M 4.65625 -2.1875 C 4.65625 -3.515625 3.671875 -4.578125 2.484375 -4.578125 C 1.265625 -4.578125 0.296875 -3.484375 0.296875 -2.1875 C 0.296875 -0.875 1.3125 0.109375 2.46875 0.109375 C 3.671875 0.109375 4.65625 -0.890625 4.65625 -2.1875 Z M 3.890625 -2.28125 C 3.890625 -1.109375 3.203125 -0.53125 2.46875 -0.53125 C 1.78125 -0.53125 1.078125 -1.078125 1.078125 -2.28125 C 1.078125 -3.484375 1.828125 -3.96875 2.46875 -3.96875 C 3.171875 -3.96875 3.890625 -3.453125 3.890625 -2.28125 Z M 3.890625 -2.28125 "/>
</g>
<g id="glyph-0-14">
<path d="M 4.3125 0 L 4.3125 -6.890625 L 3.5625 -6.890625 L 3.5625 -3.96875 C 3.046875 -4.40625 2.484375 -4.515625 2.109375 -4.515625 C 1.140625 -4.515625 0.359375 -3.484375 0.359375 -2.203125 C 0.359375 -0.90625 1.125 0.109375 2.0625 0.109375 C 2.390625 0.109375 2.984375 0.015625 3.53125 -0.515625 L 3.53125 0 Z M 3.53125 -1.375 C 3.53125 -1.25 3.53125 -1.0625 3.203125 -0.78125 C 2.984375 -0.578125 2.734375 -0.5 2.46875 -0.5 C 1.859375 -0.5 1.140625 -0.96875 1.140625 -2.203125 C 1.140625 -3.515625 1.984375 -3.921875 2.578125 -3.921875 C 3.015625 -3.921875 3.3125 -3.6875 3.53125 -3.375 Z M 3.53125 -1.375 "/>
</g>
<g id="glyph-0-15">
<path d="M 5.78125 -4.890625 C 5.78125 -5.953125 4.796875 -6.890625 3.421875 -6.890625 L 0.953125 -6.890625 L 0.953125 0 L 1.84375 0 L 1.84375 -2.875 L 3.5 -2.875 C 4.734375 -2.875 5.78125 -3.78125 5.78125 -4.890625 Z M 4.984375 -4.890625 C 4.984375 -4.109375 4.359375 -3.453125 3.203125 -3.453125 L 1.8125 -3.453125 L 1.8125 -6.34375 L 3.203125 -6.34375 C 4.296875 -6.34375 4.984375 -5.734375 4.984375 -4.890625 Z M 4.984375 -4.890625 "/>
</g>
<g id="glyph-0-16">
<path d="M 7.078125 0 L 7.078125 -2.96875 C 7.078125 -3.625 6.921875 -4.515625 5.71875 -4.515625 C 5.125 -4.515625 4.609375 -4.25 4.25 -3.703125 C 3.984375 -4.46875 3.296875 -4.515625 2.96875 -4.515625 C 2.25 -4.515625 1.78125 -4.109375 1.515625 -3.75 L 1.515625 -4.46875 L 0.8125 -4.46875 L 0.8125 0 L 1.578125 0 L 1.578125 -2.4375 C 1.578125 -3.109375 1.84375 -3.921875 2.578125 -3.921875 C 3.515625 -3.921875 3.5625 -3.265625 3.5625 -2.890625 L 3.5625 0 L 4.328125 0 L 4.328125 -2.4375 C 4.328125 -3.109375 4.59375 -3.921875 5.34375 -3.921875 C 6.265625 -3.921875 6.3125 -3.265625 6.3125 -2.890625 L 6.3125 0 Z M 7.078125 0 "/>
</g>
<g id="glyph-0-17">
<path d="M 3.578125 -1.265625 C 3.578125 -1.8125 3.203125 -2.15625 3.1875 -2.1875 C 2.796875 -2.53125 2.53125 -2.59375 2.03125 -2.6875 C 1.484375 -2.796875 1.03125 -2.890625 1.03125 -3.375 C 1.03125 -4 1.75 -4 1.875 -4 C 2.203125 -4 2.71875 -3.953125 3.296875 -3.625 L 3.40625 -4.265625 C 2.890625 -4.5 2.484375 -4.578125 1.984375 -4.578125 C 1.734375 -4.578125 0.328125 -4.578125 0.328125 -3.28125 C 0.328125 -2.796875 0.609375 -2.46875 0.859375 -2.28125 C 1.171875 -2.0625 1.390625 -2.03125 1.9375 -1.921875 C 2.296875 -1.84375 2.875 -1.734375 2.875 -1.203125 C 2.875 -0.515625 2.09375 -0.515625 1.9375 -0.515625 C 1.140625 -0.515625 0.578125 -0.890625 0.390625 -1 L 0.28125 -0.328125 C 0.59375 -0.171875 1.140625 0.109375 1.953125 0.109375 C 2.125 0.109375 2.671875 0.109375 3.09375 -0.203125 C 3.40625 -0.453125 3.578125 -0.84375 3.578125 -1.265625 Z M 3.578125 -1.265625 "/>
</g>
<g id="glyph-0-18">
<path d="M 6.640625 -4.40625 L 5.90625 -4.40625 L 5.28125 -2.3125 C 5.171875 -1.953125 4.875 -0.96875 4.8125 -0.53125 C 4.765625 -0.84375 4.515625 -1.734375 4.359375 -2.296875 L 3.703125 -4.40625 L 3.015625 -4.40625 L 2.4375 -2.546875 C 2.328125 -2.203125 2 -1.046875 1.953125 -0.546875 C 1.890625 -1.03125 1.5625 -2.140625 1.40625 -2.6875 L 0.890625 -4.40625 L 0.140625 -4.40625 L 1.5 0 L 2.28125 0 L 2.90625 -2.046875 C 3.046875 -2.5 3.3125 -3.484375 3.34375 -3.859375 L 3.359375 -3.859375 C 3.375 -3.578125 3.546875 -2.890625 3.671875 -2.46875 L 4.40625 0 L 5.28125 0 Z M 6.640625 -4.40625 "/>
</g>
<g id="glyph-0-19">
<path d="M 1.78125 -0.015625 L 1.78125 -0.828125 L 0.96875 -0.828125 L 0.96875 0 L 1.21875 0 L 0.96875 1.25 L 1.375 1.25 Z M 1.78125 -0.015625 "/>
</g>
<g id="glyph-0-20">
<path d="M 4.46875 0 L 4.46875 -0.703125 L 2.65625 -0.703125 C 2.53125 -0.703125 2.421875 -0.703125 2.296875 -0.703125 L 1.21875 -0.703125 C 1.53125 -0.96875 2.28125 -1.71875 2.59375 -2 C 2.78125 -2.1875 3.296875 -2.609375 3.484375 -2.78125 C 3.921875 -3.234375 4.46875 -3.75 4.46875 -4.59375 C 4.46875 -5.75 3.65625 -6.734375 2.34375 -6.734375 C 1.21875 -6.734375 0.65625 -5.96875 0.421875 -5.109375 C 0.53125 -4.9375 0.59375 -4.875 0.609375 -4.84375 C 0.625 -4.828125 0.71875 -4.703125 0.828125 -4.5625 C 1.03125 -5.328125 1.296875 -6.109375 2.203125 -6.109375 C 3.140625 -6.109375 3.640625 -5.359375 3.640625 -4.578125 C 3.640625 -3.734375 3.078125 -3.171875 2.5 -2.578125 L 1.734375 -1.875 L 0.5 -0.640625 L 0.5 0 Z M 4.46875 0 "/>
</g>
<g id="glyph-0-21">
<path d="M 5.234375 -6.21875 L 5.234375 -6.859375 L 0.9375 -6.859375 L 0.9375 0 L 1.8125 0 L 1.8125 -3.125 L 4.8125 -3.125 L 4.8125 -3.734375 L 1.8125 -3.734375 L 1.8125 -6.234375 L 3.125 -6.234375 C 3.234375 -6.234375 3.359375 -6.21875 3.484375 -6.21875 Z M 5.234375 -6.21875 "/>
</g>
<g id="glyph-0-22">
<path d="M 4.765625 -2.21875 C 4.765625 -3.40625 4.140625 -4.515625 3.1875 -4.515625 C 2.59375 -4.515625 2.015625 -4.3125 1.5625 -3.921875 L 1.5625 -4.40625 L 0.8125 -4.40625 L 0.8125 1.921875 L 1.59375 1.921875 L 1.59375 -0.453125 C 1.890625 -0.171875 2.328125 0.109375 2.9375 0.109375 C 3.890625 0.109375 4.765625 -0.859375 4.765625 -2.21875 Z M 4 -2.21875 C 4 -1.1875 3.296875 -0.5 2.546875 -0.5 C 2.15625 -0.5 1.890625 -0.703125 1.6875 -0.96875 C 1.59375 -1.109375 1.59375 -1.140625 1.59375 -1.3125 L 1.59375 -3.3125 C 1.828125 -3.65625 2.21875 -3.890625 2.640625 -3.890625 C 3.40625 -3.890625 4 -3.125 4 -2.21875 Z M 4 -2.21875 "/>
</g>
<g id="glyph-0-23">
<path d="M 4.8125 -3.890625 L 4.703125 -4.515625 C 4.015625 -4.515625 3.4375 -4.328125 3.140625 -4.203125 C 2.9375 -4.375 2.59375 -4.515625 2.203125 -4.515625 C 1.34375 -4.515625 0.609375 -3.8125 0.609375 -2.90625 C 0.609375 -2.53125 0.75 -2.171875 0.9375 -1.921875 C 0.65625 -1.515625 0.65625 -1.125 0.65625 -1.078125 C 0.65625 -0.8125 0.75 -0.53125 0.921875 -0.3125 C 0.390625 -0.015625 0.28125 0.453125 0.28125 0.703125 C 0.28125 1.453125 1.265625 2.046875 2.46875 2.046875 C 3.703125 2.046875 4.6875 1.453125 4.6875 0.703125 C 4.6875 -0.6875 3.015625 -0.6875 2.640625 -0.6875 L 1.765625 -0.6875 C 1.625 -0.6875 1.1875 -0.6875 1.1875 -1.21875 C 1.1875 -1.328125 1.21875 -1.484375 1.296875 -1.5625 C 1.5 -1.421875 1.828125 -1.28125 2.203125 -1.28125 C 3.09375 -1.28125 3.78125 -2.015625 3.78125 -2.90625 C 3.78125 -3.375 3.5625 -3.75 3.453125 -3.890625 L 3.5 -3.890625 C 3.71875 -3.890625 4 -3.921875 4.234375 -3.921875 C 4.40625 -3.921875 4.8125 -3.890625 4.8125 -3.890625 Z M 3.09375 -2.90625 C 3.09375 -2.125 2.625 -1.84375 2.203125 -1.84375 C 1.828125 -1.84375 1.3125 -2.078125 1.3125 -2.90625 C 1.3125 -3.734375 1.828125 -3.953125 2.203125 -3.953125 C 2.625 -3.953125 3.09375 -3.671875 3.09375 -2.90625 Z M 3.984375 0.71875 C 3.984375 1.15625 3.296875 1.484375 2.484375 1.484375 C 1.671875 1.484375 0.96875 1.171875 0.96875 0.703125 C 0.96875 0.671875 0.96875 0.03125 1.75 0.03125 L 2.640625 0.03125 C 2.859375 0.03125 3.984375 0.03125 3.984375 0.71875 Z M 3.984375 0.71875 "/>
</g>
<g id="glyph-0-24">
<path d="M 4.4375 -4.40625 L 3.6875 -4.40625 C 2.390625 -1.25 2.375 -0.796875 2.359375 -0.5625 C 2.296875 -1.234375 1.5 -3.078125 1.453125 -3.171875 L 0.921875 -4.40625 L 0.140625 -4.40625 L 2.0625 0 L 1.703125 0.890625 C 1.453125 1.46875 1.28125 1.46875 1.140625 1.46875 C 0.984375 1.46875 0.671875 1.4375 0.375 1.3125 L 0.421875 1.953125 C 0.640625 2 0.921875 2.03125 1.140625 2.03125 C 1.484375 2.03125 1.859375 1.921875 2.265625 0.90625 Z M 4.4375 -4.40625 "/>
</g>
<g id="glyph-0-25">
<path d="M 3.453125 -6.234375 L 3.453125 -6.890625 C 3.328125 -6.921875 3.015625 -7 2.65625 -7 C 1.71875 -7 1 -6.296875 1 -5.3125 L 1 -4.40625 L 0.265625 -4.40625 L 0.265625 -3.828125 L 1 -3.828125 L 1 0 L 1.75 0 L 1.75 -3.828125 L 2.84375 -3.828125 L 2.84375 -4.40625 L 1.71875 -4.40625 L 1.71875 -5.59375 C 1.71875 -6.328125 2.390625 -6.40625 2.640625 -6.40625 C 2.84375 -6.40625 3.109375 -6.375 3.453125 -6.234375 Z M 3.453125 -6.234375 "/>
</g>
<g id="glyph-0-26">
<path d="M 6.484375 0 L 3.671875 -3.640625 L 6.0625 -6.890625 L 5.109375 -6.890625 L 3.234375 -4.296875 L 1.3125 -6.890625 L 0.28125 -6.890625 L 2.8125 -3.640625 L 0.140625 0 L 1.09375 0 L 3.234375 -3.046875 L 5.453125 0 Z M 6.484375 0 "/>
</g>
<g id="glyph-0-27">
<path d="M 4.546875 -1.78125 C 4.546875 -2.6875 3.84375 -3.3125 3.171875 -3.515625 C 3.921875 -3.921875 4.265625 -4.59375 4.265625 -5.234375 C 4.265625 -6.078125 3.453125 -6.734375 2.46875 -6.734375 C 1.703125 -6.734375 0.96875 -6.34375 0.5625 -5.640625 L 0.921875 -5.109375 C 1.203125 -5.796875 1.84375 -6.15625 2.453125 -6.15625 C 2.96875 -6.15625 3.453125 -5.859375 3.453125 -5.234375 C 3.453125 -4.625 3.046875 -4.03125 2.4375 -3.890625 C 2.390625 -3.890625 2.359375 -3.890625 1.65625 -3.828125 L 1.65625 -3.21875 L 2.359375 -3.21875 C 3.4375 -3.21875 3.65625 -2.296875 3.65625 -1.796875 C 3.65625 -1.03125 3.203125 -0.390625 2.4375 -0.390625 C 1.75 -0.390625 0.96875 -0.734375 0.53125 -1.40625 L 0.421875 -0.8125 C 1.140625 0.125 2.0625 0.21875 2.453125 0.21875 C 3.671875 0.21875 4.546875 -0.75 4.546875 -1.78125 Z M 4.546875 -1.78125 "/>
</g>
<g id="glyph-0-28">
<path d="M 5.828125 -0.453125 L 5.78125 -1.140625 C 5.484375 -0.9375 5.203125 -0.75 4.859375 -0.640625 C 4.546875 -0.53125 4.1875 -0.53125 3.859375 -0.53125 C 3.203125 -0.53125 2.625 -0.875 2.21875 -1.375 C 1.765625 -1.96875 1.546875 -2.703125 1.546875 -3.453125 C 1.546875 -4.1875 1.765625 -4.9375 2.21875 -5.53125 C 2.625 -6.03125 3.203125 -6.375 3.859375 -6.375 C 4.15625 -6.375 4.46875 -6.34375 4.75 -6.265625 C 5.046875 -6.171875 5.328125 -6.015625 5.578125 -5.84375 L 5.71875 -6.65625 C 5.421875 -6.78125 5.125 -6.875 4.796875 -6.9375 C 4.484375 -7 4.171875 -7.015625 3.859375 -7.015625 C 2.984375 -7.015625 2.171875 -6.625 1.59375 -5.96875 C 0.96875 -5.28125 0.65625 -4.375 0.65625 -3.453125 C 0.65625 -2.53125 0.96875 -1.625 1.59375 -0.9375 C 2.171875 -0.28125 2.984375 0.109375 3.859375 0.109375 C 4.203125 0.109375 4.546875 0.09375 4.890625 0 C 5.234375 -0.09375 5.53125 -0.265625 5.828125 -0.453125 Z M 5.828125 -0.453125 "/>
</g>
<g id="glyph-0-29">
<path d="M 4.328125 0 L 4.328125 -4.40625 L 3.546875 -4.40625 L 3.546875 -1.53125 C 3.546875 -0.78125 2.984375 -0.4375 2.359375 -0.4375 C 1.65625 -0.4375 1.578125 -0.703125 1.578125 -1.125 L 1.578125 -4.40625 L 0.8125 -4.40625 L 0.8125 -1.078125 C 0.8125 -0.375 1.03125 0.109375 1.859375 0.109375 C 2.390625 0.109375 3.09375 -0.046875 3.578125 -0.484375 L 3.578125 0 Z M 4.328125 0 "/>
</g>
<g id="glyph-0-30">
<path d="M 4.953125 0 L 4.953125 -0.65625 L 2.3125 -0.640625 L 1.8125 -0.640625 L 1.8125 -6.890625 L 0.9375 -6.890625 L 0.9375 0 Z M 4.953125 0 "/>
</g>
<g id="glyph-0-31">
<path d="M 4.6875 -1.703125 L 4.6875 -2.3125 L 3.703125 -2.3125 L 3.703125 -6.515625 L 2.796875 -6.515625 L 0.28125 -2.3125 L 0.28125 -1.703125 L 2.90625 -1.703125 L 2.90625 0 L 3.703125 0 L 3.703125 -1.703125 Z M 2.96875 -2.3125 L 1.046875 -2.3125 C 1.5625 -3.15625 2.96875 -5.515625 2.96875 -6.078125 Z M 2.96875 -2.3125 "/>
</g>
<g id="glyph-0-32">
<path d="M 6.0625 -1.875 C 6.0625 -2.734375 5.203125 -3.4375 4.140625 -3.609375 C 5.046875 -3.828125 5.796875 -4.40625 5.796875 -5.171875 C 5.796875 -6.078125 4.734375 -6.890625 3.3125 -6.890625 L 0.96875 -6.890625 L 0.96875 0 L 3.59375 0 C 5.015625 0 6.0625 -0.890625 6.0625 -1.875 Z M 5.015625 -5.15625 C 5.015625 -4.5625 4.3125 -3.890625 2.9375 -3.890625 L 1.78125 -3.890625 L 1.78125 -6.34375 L 3.046875 -6.34375 C 4.140625 -6.34375 5.015625 -5.8125 5.015625 -5.15625 Z M 5.25 -1.875 C 5.25 -1.140625 4.375 -0.5625 3.3125 -0.5625 L 1.78125 -0.5625 L 1.78125 -3.28125 L 3.234375 -3.28125 C 4.28125 -3.28125 5.25 -2.671875 5.25 -1.875 Z M 5.25 -1.875 "/>
</g>
<g id="glyph-0-33">
<path d="M 4.125 -0.390625 L 4.0625 -1.0625 C 3.5625 -0.671875 3.015625 -0.53125 2.515625 -0.53125 C 1.6875 -0.53125 1.140625 -1.25 1.140625 -2.21875 C 1.140625 -2.984375 1.5 -3.9375 2.546875 -3.9375 C 3.078125 -3.9375 3.40625 -3.859375 3.953125 -3.515625 L 4.078125 -4.15625 C 3.484375 -4.484375 3.15625 -4.578125 2.546875 -4.578125 C 1.15625 -4.578125 0.359375 -3.375 0.359375 -2.203125 C 0.359375 -0.96875 1.265625 0.109375 2.5 0.109375 C 3.046875 0.109375 3.59375 -0.03125 4.125 -0.390625 Z M 4.125 -0.390625 "/>
</g>
<g id="glyph-0-34">
<path d="M 4.6875 0 L 2.796875 -2.703125 L 4.46875 -4.40625 L 3.5625 -4.40625 L 1.546875 -2.34375 L 1.546875 -6.890625 L 0.828125 -6.890625 L 0.828125 0 L 1.515625 0 L 1.515625 -1.40625 L 2.3125 -2.21875 L 3.859375 0 Z M 4.6875 0 "/>
</g>
<g id="glyph-0-35">
<path d="M 4.46875 -2.015625 C 4.46875 -3.265625 3.609375 -4.25 2.578125 -4.25 C 2.1875 -4.25 1.8125 -4.09375 1.515625 -3.828125 L 1.515625 -5.890625 L 4.140625 -5.890625 L 4.140625 -6.515625 L 0.8125 -6.515625 L 0.8125 -2.859375 L 1.453125 -2.859375 C 1.625 -3.25 2 -3.640625 2.578125 -3.640625 C 3.046875 -3.640625 3.578125 -3.234375 3.578125 -2.03125 C 3.578125 -0.390625 2.359375 -0.390625 2.28125 -0.390625 C 1.609375 -0.390625 1 -0.78125 0.71875 -1.3125 L 0.390625 -0.75 C 0.796875 -0.1875 1.484375 0.21875 2.28125 0.21875 C 3.46875 0.21875 4.46875 -0.765625 4.46875 -2.015625 Z M 4.46875 -2.015625 "/>
</g>
<g id="glyph-0-36">
<path d="M 5.890625 -2.3125 L 5.890625 -6.890625 L 5.125 -6.890625 L 5.125 -2.3125 C 5.125 -1 4.28125 -0.34375 3.453125 -0.34375 C 2.640625 -0.34375 1.8125 -0.96875 1.8125 -2.3125 L 1.8125 -6.890625 L 0.9375 -6.890625 L 0.9375 -2.3125 C 0.9375 -0.859375 2.09375 0.21875 3.4375 0.21875 C 4.765625 0.21875 5.890625 -0.875 5.890625 -2.3125 Z M 5.890625 -2.3125 "/>
</g>
<g id="glyph-0-37">
<path d="M 4.953125 -2.421875 L 4.953125 -3.03125 L 0 -3.03125 L 0 -2.421875 Z M 4.953125 -2.421875 "/>
</g>
<g id="glyph-1-0">
<path d="M 12.1875 -6.640625 C 12.1875 -6.78125 12.09375 -6.921875 11.9375 -6.921875 C 11.5625 -6.921875 10.890625 -6.75 10.546875 -6.59375 L 10.609375 -6.515625 C 10.921875 -6.640625 10.953125 -6.140625 10.953125 -5.96875 C 10.953125 -4.953125 9.109375 -2.375 8.296875 -1.765625 C 8.265625 -3.046875 7.9375 -4.328125 7.9375 -5.625 C 7.9375 -5.984375 8 -6.34375 8.09375 -6.703125 C 7.59375 -6.703125 7.328125 -6.421875 6.890625 -6.3125 C 6.9375 -4.578125 6.125 -2.90625 4.921875 -1.703125 C 4.828125 -2.9375 4.4375 -4.125 4.4375 -5.359375 C 4.4375 -5.828125 4.484375 -6.3125 4.65625 -6.75 C 3.75 -6.734375 0.0625 -5.578125 0.0625 -4.515625 C 0.0625 -4.15625 0.703125 -3.328125 1.078125 -3.328125 L 1.171875 -3.34375 C 1 -3.5 0.96875 -3.734375 0.96875 -3.9375 C 0.96875 -5.0625 2.5 -6.015625 3.484375 -6.15625 C 3.4375 -5.90625 3.421875 -5.640625 3.421875 -5.375 C 3.421875 -4.1875 3.84375 -3.078125 3.84375 -1.75 C 3.84375 -1.109375 3.8125 -0.453125 3.765625 0.203125 C 4.125 0.171875 4.4375 0.015625 4.734375 -0.171875 C 5.109375 -1.453125 6.109375 -2.859375 7 -3.8125 C 7.1875 -3.046875 7.3125 -2.265625 7.3125 -1.484375 C 7.3125 -1.015625 7.328125 -0.21875 7.0625 0.171875 L 7.109375 0.234375 C 7.375 0.15625 8.125 -0.09375 8.265625 -0.328125 C 8.3125 -0.421875 8.328125 -0.5625 8.359375 -0.671875 C 8.484375 -1.15625 8.734375 -1.625 9.03125 -2.03125 C 9.796875 -3.078125 12.1875 -5.421875 12.1875 -6.640625 Z M 12.1875 -6.640625 "/>
</g>
<g id="glyph-1-1">
<path d="M 1.796875 -2.546875 C 1.796875 -2.859375 1.546875 -3.109375 1.25 -3.109375 C 0.9375 -3.109375 0.703125 -2.859375 0.703125 -2.546875 C 0.703125 -2.171875 1.03125 -2 1.25 -2 C 1.453125 -2 1.796875 -2.171875 1.796875 -2.546875 Z M 1.796875 -2.546875 "/>
</g>
<g id="glyph-1-2">
<path d="M 7.375 -0.671875 L 7.328125 -0.765625 C 6.890625 -0.296875 6.265625 0 5.640625 0 C 4.546875 0 3.515625 -0.328125 2.46875 -0.59375 C 3.5625 -1.5625 4.171875 -2.65625 4.40625 -4.078125 C 4.53125 -4.828125 4.640625 -6.515625 5.6875 -6.515625 C 6.125 -6.515625 6.5 -6.359375 6.5 -5.859375 C 6.5 -5.671875 6.40625 -5.46875 6.265625 -5.34375 L 6.265625 -5.234375 C 6.5 -5.3125 7.28125 -5.671875 7.28125 -5.953125 C 7.28125 -6.59375 6.453125 -6.84375 5.9375 -6.84375 C 3.21875 -6.84375 3.390625 -4.03125 2.859375 -2.140625 C 2.765625 -1.796875 2.3125 -0.75 1.890625 -0.75 C 1.625 -0.75 1.34375 -0.859375 1.078125 -0.859375 C 0.703125 -0.859375 0.203125 -0.125 0.0625 0.171875 L 0.125 0.234375 C 0.28125 0.09375 0.53125 -0.0625 0.765625 -0.0625 C 2.4375 -0.0625 3.984375 0.859375 5.671875 0.859375 C 6.671875 0.859375 7.078125 0.203125 7.375 -0.671875 Z M 7.375 -0.671875 "/>
</g>
<g id="glyph-2-0">
<path d="M 6.828125 -3.25 C 6.96875 -3.25 7.171875 -3.25 7.171875 -3.453125 C 7.171875 -3.640625 6.96875 -3.640625 6.84375 -3.640625 L 0.890625 -3.640625 C 0.75 -3.640625 0.5625 -3.640625 0.5625 -3.453125 C 0.5625 -3.25 0.75 -3.25 0.890625 -3.25 Z M 6.84375 -1.328125 C 6.96875 -1.328125 7.171875 -1.328125 7.171875 -1.515625 C 7.171875 -1.71875 6.96875 -1.71875 6.828125 -1.71875 L 0.890625 -1.71875 C 0.75 -1.71875 0.5625 -1.71875 0.5625 -1.515625 C 0.5625 -1.328125 0.75 -1.328125 0.890625 -1.328125 Z M 6.84375 -1.328125 "/>
</g>
<g id="glyph-2-1">
<path d="M 2.484375 -6.890625 L 1.15625 -5.546875 L 1.328125 -5.359375 L 2.484375 -6.375 L 3.625 -5.359375 L 3.8125 -5.546875 Z M 2.484375 -6.890625 "/>
</g>
<g id="glyph-2-2">
<path d="M 3.296875 2.390625 C 3.296875 2.359375 3.296875 2.328125 3.125 2.171875 C 1.875 0.921875 1.5625 -0.96875 1.5625 -2.484375 C 1.5625 -4.21875 1.9375 -5.9375 3.15625 -7.1875 C 3.296875 -7.296875 3.296875 -7.328125 3.296875 -7.359375 C 3.296875 -7.421875 3.25 -7.453125 3.1875 -7.453125 C 3.09375 -7.453125 2.203125 -6.78125 1.609375 -5.515625 C 1.109375 -4.421875 0.984375 -3.3125 0.984375 -2.484375 C 0.984375 -1.703125 1.09375 -0.5 1.640625 0.609375 C 2.234375 1.84375 3.09375 2.484375 3.1875 2.484375 C 3.25 2.484375 3.296875 2.453125 3.296875 2.390625 Z M 3.296875 2.390625 "/>
</g>
<g id="glyph-2-3">
<path d="M 1.90625 -3.75 C 1.90625 -4.046875 1.671875 -4.28125 1.375 -4.28125 C 1.09375 -4.28125 0.859375 -4.046875 0.859375 -3.75 C 0.859375 -3.46875 1.09375 -3.234375 1.375 -3.234375 C 1.671875 -3.234375 1.90625 -3.46875 1.90625 -3.75 Z M 1.71875 -0.109375 C 1.71875 0.171875 1.71875 0.9375 1.078125 1.671875 C 1.015625 1.765625 1.015625 1.78125 1.015625 1.8125 C 1.015625 1.875 1.0625 1.921875 1.109375 1.921875 C 1.21875 1.921875 1.9375 1.125 1.9375 -0.03125 C 1.9375 -0.3125 1.921875 -1.046875 1.375 -1.046875 C 1.03125 -1.046875 0.859375 -0.78125 0.859375 -0.53125 C 0.859375 -0.265625 1.03125 0 1.375 0 C 1.4375 0 1.453125 0 1.453125 -0.015625 C 1.53125 -0.015625 1.640625 -0.046875 1.71875 -0.109375 Z M 1.71875 -0.109375 "/>
</g>
<g id="glyph-2-4">
<path d="M 2.875 -2.484375 C 2.875 -3.265625 2.765625 -4.46875 2.21875 -5.578125 C 1.625 -6.8125 0.765625 -7.453125 0.671875 -7.453125 C 0.609375 -7.453125 0.5625 -7.40625 0.5625 -7.359375 C 0.5625 -7.328125 0.5625 -7.296875 0.75 -7.125 C 1.734375 -6.140625 2.296875 -4.5625 2.296875 -2.484375 C 2.296875 -0.78125 1.921875 0.96875 0.703125 2.21875 C 0.5625 2.328125 0.5625 2.359375 0.5625 2.390625 C 0.5625 2.4375 0.609375 2.484375 0.671875 2.484375 C 0.765625 2.484375 1.65625 1.8125 2.25 0.546875 C 2.75 -0.546875 2.875 -1.65625 2.875 -2.484375 Z M 2.875 -2.484375 "/>
</g>
<g id="glyph-3-0">
<path d="M 1.8125 3.921875 C 1.8125 4.5625 1.65625 4.921875 0.65625 5.296875 C 0.609375 5.3125 0.578125 5.34375 0.578125 5.40625 C 0.578125 5.46875 0.59375 5.5 0.671875 5.53125 C 2 6.015625 1.8125 6.53125 1.8125 7.046875 L 1.8125 10 C 1.8125 10.25 1.96875 10.59375 2.40625 10.875 C 2.890625 11.1875 3.5 11.375 3.59375 11.375 C 3.6875 11.375 3.71875 11.328125 3.71875 11.25 C 3.71875 11.171875 3.703125 11.15625 3.546875 11.109375 C 3.265625 11.015625 2.75 10.71875 2.59375 10.15625 C 2.5625 10.046875 2.5625 10.03125 2.5625 9.671875 L 2.5625 7.015625 C 2.5625 6.53125 2.734375 5.796875 1.375 5.421875 C 2.71875 5.046875 2.5625 4.3125 2.5625 3.796875 L 2.5625 1.125 C 2.5625 0.609375 2.59375 0.0625 3.640625 -0.34375 C 3.71875 -0.375 3.71875 -0.421875 3.71875 -0.4375 C 3.71875 -0.515625 3.6875 -0.5625 3.59375 -0.5625 C 3.515625 -0.5625 2.3125 -0.265625 1.96875 0.34375 C 1.8125 0.625 1.8125 0.71875 1.8125 1.109375 Z M 1.8125 3.921875 "/>
</g>
<g id="glyph-3-1">
<path d="M 2.484375 3.921875 L 2.484375 1.109375 C 2.484375 0.71875 2.484375 0.625 2.328125 0.34375 C 1.984375 -0.265625 0.78125 -0.5625 0.703125 -0.5625 C 0.609375 -0.5625 0.578125 -0.515625 0.578125 -0.4375 C 0.578125 -0.421875 0.578125 -0.375 0.640625 -0.34375 C 1.703125 0.0625 1.734375 0.609375 1.734375 1.125 L 1.734375 3.796875 C 1.734375 4.3125 1.578125 5.046875 2.921875 5.421875 C 1.5625 5.796875 1.734375 6.53125 1.734375 7.015625 L 1.734375 9.671875 C 1.734375 10.03125 1.734375 10.046875 1.703125 10.15625 C 1.546875 10.71875 1.03125 11.015625 0.75 11.109375 C 0.59375 11.15625 0.578125 11.171875 0.578125 11.25 C 0.578125 11.328125 0.609375 11.375 0.703125 11.375 C 0.796875 11.375 1.40625 11.1875 1.890625 10.875 C 2.328125 10.59375 2.46875 10.25 2.484375 10 L 2.484375 7.046875 C 2.484375 6.53125 2.28125 6.015625 3.625 5.53125 C 3.703125 5.5 3.71875 5.46875 3.71875 5.40625 C 3.71875 5.34375 3.6875 5.3125 3.640625 5.296875 C 2.640625 4.921875 2.484375 4.5625 2.484375 3.921875 Z M 2.484375 3.921875 "/>
</g>
<g id="glyph-4-0">
<path d="M 2.5 -5.0625 C 2.5 -5.28125 2.484375 -5.28125 2.265625 -5.28125 C 1.9375 -4.96875 1.515625 -4.78125 0.765625 -4.78125 L 0.765625 -4.515625 C 0.984375 -4.515625 1.40625 -4.515625 1.875 -4.734375 L 1.875 -0.65625 C 1.875 -0.359375 1.84375 -0.265625 1.09375 -0.265625 L 0.8125 -0.265625 L 0.8125 0 C 1.140625 -0.03125 1.828125 -0.03125 2.171875 -0.03125 C 2.53125 -0.03125 3.234375 -0.03125 3.5625 0 L 3.5625 -0.265625 L 3.28125 -0.265625 C 2.515625 -0.265625 2.5 -0.359375 2.5 -0.65625 Z M 2.5 -5.0625 "/>
</g>
<g id="glyph-4-1">
<path d="M 2.25 -1.625 C 2.375 -1.734375 2.703125 -2 2.828125 -2.109375 C 3.328125 -2.5625 3.796875 -3 3.796875 -3.734375 C 3.796875 -4.671875 3 -5.28125 2 -5.28125 C 1.046875 -5.28125 0.421875 -4.5625 0.421875 -3.859375 C 0.421875 -3.46875 0.734375 -3.40625 0.84375 -3.40625 C 1.015625 -3.40625 1.25 -3.53125 1.25 -3.828125 C 1.25 -4.25 0.859375 -4.25 0.765625 -4.25 C 1 -4.828125 1.53125 -5.03125 1.921875 -5.03125 C 2.65625 -5.03125 3.03125 -4.390625 3.03125 -3.734375 C 3.03125 -2.90625 2.453125 -2.296875 1.515625 -1.34375 L 0.515625 -0.296875 C 0.421875 -0.21875 0.421875 -0.203125 0.421875 0 L 3.5625 0 L 3.796875 -1.421875 L 3.546875 -1.421875 C 3.515625 -1.265625 3.453125 -0.859375 3.359375 -0.71875 C 3.3125 -0.65625 2.71875 -0.65625 2.578125 -0.65625 L 1.171875 -0.65625 Z M 2.25 -1.625 "/>
</g>
<g id="glyph-4-2">
<path d="M 3.46875 -1.8125 L 5.8125 -1.8125 C 5.921875 -1.8125 6.09375 -1.8125 6.09375 -1.984375 C 6.09375 -2.171875 5.921875 -2.171875 5.8125 -2.171875 L 3.46875 -2.171875 L 3.46875 -4.515625 C 3.46875 -4.625 3.46875 -4.796875 3.28125 -4.796875 C 3.109375 -4.796875 3.109375 -4.625 3.109375 -4.515625 L 3.109375 -2.171875 L 0.75 -2.171875 C 0.640625 -2.171875 0.46875 -2.171875 0.46875 -1.984375 C 0.46875 -1.8125 0.640625 -1.8125 0.75 -1.8125 L 3.109375 -1.8125 L 3.109375 0.546875 C 3.109375 0.65625 3.109375 0.828125 3.28125 0.828125 C 3.46875 0.828125 3.46875 0.65625 3.46875 0.546875 Z M 3.46875 -1.8125 "/>
</g>
<g id="glyph-5-0">
<path d="M 3.703125 0 L 3.703125 -2.359375 C 3.703125 -2.96875 3.515625 -3.609375 2.53125 -3.609375 C 2.078125 -3.609375 1.640625 -3.421875 1.296875 -3 L 1.296875 -3.59375 L 0.65625 -3.59375 L 0.65625 0 L 1.359375 0 L 1.359375 -1.9375 C 1.359375 -2.453125 1.578125 -3.078125 2.1875 -3.078125 C 3 -3.078125 3 -2.53125 3 -2.296875 L 3 0 Z M 3.703125 0 "/>
</g>
<g id="glyph-5-1">
<path d="M 2.8125 -0.21875 L 2.6875 -0.71875 C 2.421875 -0.53125 2.140625 -0.46875 1.921875 -0.46875 C 1.578125 -0.46875 1.5 -0.796875 1.5 -1.15625 L 1.5 -3.03125 L 2.671875 -3.03125 L 2.671875 -3.53125 L 1.5 -3.53125 L 1.5 -4.546875 L 0.875 -4.546875 L 0.875 -3.53125 L 0.15625 -3.53125 L 0.15625 -3.03125 L 0.859375 -3.03125 L 0.859375 -1.015625 C 0.859375 -0.484375 1 0.078125 1.5625 0.078125 C 2.140625 0.078125 2.578125 -0.109375 2.8125 -0.21875 Z M 2.8125 -0.21875 "/>
</g>
<g id="glyph-6-0">
<path d="M 6.3125 -6.703125 L 3.4375 0 L 3.1875 0 L 0.3125 -6.703125 Z M 5.0625 -5.96875 L 1.5625 -5.96875 L 3.3125 -1.703125 Z M 5.0625 -5.96875 "/>
</g>
<g id="glyph-7-0">
<path d="M 9.765625 -5.3125 C 9.765625 -5.421875 9.671875 -5.546875 9.5625 -5.546875 C 9.25 -5.546875 8.71875 -5.40625 8.453125 -5.265625 L 8.484375 -5.203125 C 8.734375 -5.328125 8.765625 -4.921875 8.765625 -4.765625 C 8.765625 -3.953125 7.296875 -1.90625 6.640625 -1.40625 C 6.609375 -2.4375 6.359375 -3.453125 6.359375 -4.5 C 6.359375 -4.78125 6.40625 -5.078125 6.46875 -5.359375 C 6.078125 -5.359375 5.875 -5.140625 5.515625 -5.046875 C 5.546875 -3.671875 4.90625 -2.328125 3.9375 -1.359375 C 3.859375 -2.34375 3.5625 -3.296875 3.5625 -4.296875 C 3.5625 -4.671875 3.59375 -5.046875 3.734375 -5.40625 C 3 -5.390625 0.0625 -4.46875 0.0625 -3.609375 C 0.0625 -3.328125 0.5625 -2.671875 0.859375 -2.671875 L 0.9375 -2.671875 C 0.796875 -2.796875 0.765625 -2.984375 0.765625 -3.15625 C 0.765625 -4.046875 2 -4.8125 2.78125 -4.9375 C 2.75 -4.71875 2.734375 -4.515625 2.734375 -4.296875 C 2.734375 -3.359375 3.078125 -2.453125 3.078125 -1.40625 C 3.078125 -0.875 3.046875 -0.359375 3.015625 0.15625 C 3.296875 0.140625 3.5625 0.015625 3.796875 -0.140625 C 4.09375 -1.15625 4.890625 -2.28125 5.59375 -3.046875 C 5.765625 -2.4375 5.859375 -1.8125 5.859375 -1.1875 C 5.859375 -0.8125 5.875 -0.171875 5.640625 0.140625 L 5.6875 0.1875 C 5.90625 0.125 6.5 -0.078125 6.609375 -0.265625 C 6.65625 -0.34375 6.671875 -0.453125 6.6875 -0.53125 C 6.796875 -0.9375 6.984375 -1.296875 7.234375 -1.625 C 7.84375 -2.46875 9.765625 -4.328125 9.765625 -5.3125 Z M 9.765625 -5.3125 "/>
</g>
<g id="glyph-7-1">
<path d="M 5.90625 -0.53125 L 5.859375 -0.609375 C 5.515625 -0.234375 5.015625 0 4.515625 0 C 3.640625 0 2.8125 -0.265625 1.984375 -0.484375 C 2.84375 -1.25 3.34375 -2.125 3.53125 -3.265625 C 3.625 -3.859375 3.71875 -5.21875 4.546875 -5.21875 C 4.90625 -5.21875 5.203125 -5.09375 5.203125 -4.6875 C 5.203125 -4.53125 5.125 -4.375 5.015625 -4.265625 L 5.015625 -4.1875 C 5.203125 -4.25 5.828125 -4.53125 5.828125 -4.765625 C 5.828125 -5.265625 5.15625 -5.484375 4.75 -5.484375 C 2.578125 -5.484375 2.71875 -3.234375 2.296875 -1.703125 C 2.21875 -1.4375 1.84375 -0.59375 1.515625 -0.59375 C 1.296875 -0.59375 1.078125 -0.6875 0.859375 -0.6875 C 0.5625 -0.6875 0.171875 -0.109375 0.0625 0.140625 L 0.09375 0.1875 C 0.234375 0.078125 0.421875 -0.046875 0.609375 -0.046875 C 1.953125 -0.046875 3.1875 0.6875 4.53125 0.6875 C 5.34375 0.6875 5.65625 0.15625 5.90625 -0.53125 Z M 5.90625 -0.53125 "/>
</g>
<g id="glyph-8-0">
<path d="M 2.296875 -4.921875 L 2.359375 -4.828125 C 3.296875 -4.671875 3.796875 -4.28125 3.859375 -3.375 C 3.640625 -3.625 3.328125 -3.6875 2.953125 -3.6875 C 1.75 -3.6875 0.71875 -2.46875 0.71875 -1.28125 C 0.71875 -0.515625 1.203125 0.078125 2.0625 0.078125 C 3.1875 0.078125 4.09375 -0.953125 4.359375 -2.015625 C 4.484375 -2.5 4.546875 -2.9375 4.546875 -3.3125 C 4.546875 -4.484375 3.890625 -5.234375 2.625 -5.4375 Z M 3.734375 -2.25 C 3.734375 -1.78125 3.3125 -0.484375 2.21875 -0.484375 C 1.671875 -0.484375 1.375 -0.859375 1.375 -1.40625 C 1.375 -2.25 2.03125 -3.125 2.84375 -3.125 C 3.40625 -3.125 3.734375 -2.796875 3.734375 -2.25 Z M 3.734375 -2.25 "/>
</g>
<g id="glyph-9-0">
<path d="M 1.84375 -4.59375 L 1.140625 -4.234375 C 1.1875 -4.15625 1.21875 -4.046875 1.21875 -3.921875 C 1.21875 -3.703125 1.15625 -3.453125 1.109375 -3.203125 L 0.3125 0 L 1.09375 0 L 1.84375 -3 C 2.203125 -3.59375 2.9375 -3.890625 3.265625 -3.890625 C 3.65625 -3.890625 3.90625 -3.75 3.90625 -3.375 C 3.90625 -3.265625 3.890625 -3.15625 3.859375 -3.015625 L 2.796875 1.25 C 2.71875 1.546875 2.6875 1.75 2.6875 1.875 C 2.6875 1.984375 2.71875 2.0625 2.734375 2.140625 L 3.546875 2.140625 C 3.515625 2.046875 3.5 1.9375 3.5 1.8125 C 3.5 1.65625 3.53125 1.46875 3.578125 1.265625 L 4.6875 -3.1875 C 4.734375 -3.375 4.765625 -3.5625 4.765625 -3.734375 C 4.765625 -4.265625 4.296875 -4.59375 3.703125 -4.59375 C 3.171875 -4.59375 2.671875 -4.484375 2.03125 -3.984375 C 2.046875 -4.078125 2.046875 -4.125 2.046875 -4.140625 C 2.046875 -4.328125 2.015625 -4.46875 1.953125 -4.59375 Z M 1.84375 -4.59375 "/>
</g>
<g id="glyph-10-0">
<path d="M 0 -5.6875 L -2.90625 -4.5 C -3.15625 -5.46875 -3.8125 -6.25 -4.546875 -6.40625 C -5.46875 -6.609375 -6.21875 -5.734375 -6.21875 -4.453125 L -6.21875 -2.1875 L 0 -0.875 L 0 -1.703125 L -2.8125 -2.296875 L -2.8125 -3.734375 L 0 -4.828125 Z M -4.546875 -5.625 C -3.953125 -5.5 -3.40625 -4.84375 -3.40625 -3.75 L -3.40625 -2.421875 L -5.6875 -2.90625 L -5.6875 -4.21875 C -5.6875 -5.265625 -5.1875 -5.765625 -4.546875 -5.625 Z M -4.546875 -5.625 "/>
</g>
<g id="glyph-10-1">
<path d="M -1.953125 -4.25 C -2.234375 -4.296875 -2.921875 -4.4375 -3.453125 -4.203125 C -4.015625 -3.9375 -4.125 -3.390625 -4.125 -3.046875 C -4.125 -2.015625 -3.171875 -0.984375 -2.015625 -0.75 C -0.84375 -0.5 0.09375 -1.171875 0.09375 -2.296875 C 0.09375 -2.71875 -0.015625 -3.265625 -0.34375 -3.84375 L -0.953125 -3.9375 C -0.5625 -3.28125 -0.484375 -2.734375 -0.484375 -2.421875 C -0.484375 -1.671875 -1.140625 -1.25 -1.953125 -1.390625 Z M -2.484375 -3.8125 L -2.484375 -1.5625 C -3.0625 -1.828125 -3.546875 -2.359375 -3.546875 -2.921875 C -3.546875 -3.265625 -3.390625 -3.84375 -2.484375 -3.8125 Z M -2.484375 -3.8125 "/>
</g>
<g id="glyph-10-2">
<path d="M -2 -4.84375 C -3.078125 -5.078125 -4.078125 -4.734375 -4.078125 -3.859375 C -4.078125 -3.609375 -4.03125 -2.9375 -3.546875 -2.21875 L -3.96875 -2.296875 L -3.96875 -1.578125 L 1.734375 -0.375 L 1.734375 -1.125 L -0.40625 -1.578125 C -0.09375 -1.828125 0.09375 -2.25 0.09375 -2.71875 C 0.09375 -3.609375 -0.78125 -4.59375 -2 -4.84375 Z M -1.984375 -4.09375 C -1.125 -3.921875 -0.484375 -3.15625 -0.484375 -2.453125 C -0.484375 -2.171875 -0.59375 -1.875 -1.03125 -1.703125 L -2.96875 -2.125 C -3.140625 -2.265625 -3.46875 -2.671875 -3.46875 -3.171875 C -3.46875 -3.84375 -2.828125 -4.28125 -1.984375 -4.09375 Z M -1.984375 -4.09375 "/>
</g>
<g id="glyph-10-3">
<path d="M 0 -3.78125 L -2.59375 -4.328125 C -3.46875 -4.515625 -4.125 -4 -4.125 -3.109375 C -4.125 -2.53125 -3.96875 -2.0625 -3.734375 -1.59375 L -3.09375 -1.515625 C -3.421875 -2.015625 -3.5625 -2.5 -3.5625 -2.984375 C -3.5625 -3.484375 -3.15625 -3.703125 -2.578125 -3.578125 L -2.203125 -3.5 C -2.171875 -1.953125 -1.765625 -0.859375 -1.03125 -0.703125 C -0.625 -0.625 0.09375 -0.75 0.09375 -1.515625 C 0.09375 -1.703125 0.078125 -2.484375 -0.34375 -3.140625 L 0 -3.0625 Z M -1.25 -3.296875 C -1.0625 -3.265625 -0.84375 -3.21875 -0.65625 -2.859375 C -0.515625 -2.59375 -0.484375 -2.296875 -0.484375 -2.109375 C -0.484375 -1.65625 -0.703125 -1.328125 -1.0625 -1.390625 C -1.6875 -1.53125 -1.71875 -3.28125 -1.71875 -3.40625 Z M -1.25 -3.296875 "/>
</g>
<g id="glyph-10-4">
<path d="M -0.234375 -3.109375 L -0.796875 -3.078125 C -0.625 -2.8125 -0.515625 -2.46875 -0.515625 -2.1875 C -0.515625 -1.84375 -0.828125 -1.796875 -1.296875 -1.890625 L -3.421875 -2.34375 L -3.421875 -3.640625 L -3.96875 -3.75 L -3.96875 -2.46875 L -5.109375 -2.703125 L -5.109375 -2.046875 L -3.96875 -1.796875 L -3.96875 -1.015625 L -3.421875 -0.890625 L -3.421875 -1.65625 L -1.125 -1.171875 C -0.59375 -1.0625 0.09375 -1.03125 0.09375 -1.6875 C 0.09375 -2.078125 0.015625 -2.5625 -0.234375 -3.109375 Z M -0.234375 -3.109375 "/>
</g>
<g id="glyph-10-5">
<path d="M 0 -4.015625 L -3.96875 -4.859375 L -3.96875 -4.125 L -1.390625 -3.578125 C -0.671875 -3.421875 -0.4375 -2.796875 -0.4375 -2.265625 C -0.4375 -1.625 -0.640625 -1.609375 -1.015625 -1.6875 L -3.96875 -2.3125 L -3.96875 -1.5625 L -0.96875 -0.9375 C -0.21875 -0.765625 0.09375 -1.015625 0.09375 -1.640625 C 0.09375 -2.171875 -0.046875 -2.890625 -0.4375 -3.390625 L 0 -3.296875 Z M 0 -4.015625 "/>
</g>
<g id="glyph-10-6">
<path d="M 0 -4.015625 L -2.65625 -4.578125 C -3.328125 -4.734375 -4.078125 -4.703125 -4.078125 -3.625 C -4.078125 -2.921875 -3.65625 -2.40625 -3.390625 -2.140625 L -4.03125 -2.28125 L -4.03125 -1.578125 L 0 -0.71875 L 0 -1.46875 L -2.1875 -1.9375 C -2.78125 -2.0625 -3.484375 -2.4375 -3.484375 -3.125 C -3.484375 -4.015625 -2.859375 -3.890625 -2.59375 -3.828125 L 0 -3.28125 Z M 0 -4.015625 "/>
</g>
<g id="glyph-10-7">
<path d="M 0 -1.453125 L -3.96875 -2.296875 L -3.96875 -1.578125 L 0 -0.734375 Z M -5.046875 -2.609375 L -5.90625 -2.78125 L -5.90625 -1.921875 L -5.046875 -1.75 Z M -5.046875 -2.609375 "/>
</g>
<g id="glyph-10-8">
<path d="M 0 -1.453125 L -6.21875 -2.78125 L -6.21875 -2.0625 L 0 -0.734375 Z M 0 -1.453125 "/>
</g>
<g id="glyph-10-9">
<path d="M -0.40625 -5.484375 L -1.0625 -5.5625 C -0.890625 -5.265625 -0.71875 -4.953125 -0.625 -4.640625 C -0.53125 -4.3125 -0.515625 -4 -0.515625 -3.671875 C -0.515625 -3.09375 -0.8125 -2.609375 -1.265625 -2.34375 C -1.796875 -2.03125 -2.4375 -1.96875 -3.109375 -2.109375 C -3.78125 -2.25 -4.4375 -2.59375 -4.9375 -3.109375 C -5.40625 -3.59375 -5.703125 -4.1875 -5.703125 -4.765625 C -5.703125 -5.0625 -5.671875 -5.34375 -5.59375 -5.59375 C -5.515625 -5.84375 -5.375 -6.0625 -5.203125 -6.265625 L -6 -6.578125 C -6.109375 -6.328125 -6.203125 -6.046875 -6.234375 -5.765625 C -6.296875 -5.484375 -6.3125 -5.203125 -6.3125 -4.90625 C -6.3125 -4.109375 -5.96875 -3.28125 -5.375 -2.609375 C -4.765625 -1.90625 -3.953125 -1.4375 -3.109375 -1.25 C -2.28125 -1.078125 -1.453125 -1.203125 -0.84375 -1.640625 C -0.25 -2.0625 0.09375 -2.75 0.09375 -3.546875 C 0.09375 -3.875 0.078125 -4.1875 0 -4.515625 C -0.078125 -4.859375 -0.234375 -5.171875 -0.40625 -5.484375 Z M -0.40625 -5.484375 "/>
</g>
<g id="glyph-10-10">
<path d="M -1.96875 -4.75 C -3.140625 -5 -4.125 -4.3125 -4.125 -3.171875 C -4.125 -2.0625 -3.15625 -0.9375 -1.96875 -0.6875 C -0.78125 -0.4375 0.09375 -1.1875 0.09375 -2.28125 C 0.09375 -3.390625 -0.8125 -4.5 -1.96875 -4.75 Z M -2.0625 -4.015625 C -1.015625 -3.796875 -0.515625 -3.0625 -0.515625 -2.40625 C -0.515625 -1.71875 -1.046875 -1.234375 -2.0625 -1.453125 C -3.109375 -1.671875 -3.546875 -2.4375 -3.546875 -3.046875 C -3.546875 -3.6875 -3.09375 -4.234375 -2.0625 -4.015625 Z M -2.0625 -4.015625 "/>
</g>
<g id="glyph-10-11">
<path d="M -3.96875 -4.953125 L -3.96875 -4.25 C -2.984375 -3.65625 -2.984375 -3.640625 -2.15625 -3.15625 C -1.6875 -2.875 -0.828125 -2.359375 -0.5 -2.25 L -0.5 -2.234375 C -0.640625 -2.234375 -0.8125 -2.25 -2.109375 -2.03125 L -3.96875 -1.703125 L -3.96875 -0.96875 L 0 -1.703125 L 0 -2.53125 Z M -3.96875 -4.953125 "/>
</g>
<g id="glyph-10-12">
<path d="M -3.421875 -3.734375 L -4.078125 -3.875 C -4.0625 -3.21875 -3.75 -2.5625 -3.21875 -2.09375 L -4.03125 -2.265625 L -4.03125 -1.609375 L 0 -0.75 L 0 -1.453125 L -1.90625 -1.859375 C -2.84375 -2.0625 -3.421875 -2.921875 -3.421875 -3.734375 Z M -3.421875 -3.734375 "/>
</g>
<g id="glyph-10-13">
<path d="M -3.46875 -5.203125 L -4.078125 -5.234375 C -4.078125 -5.0625 -4.078125 -4.453125 -3.78125 -3.734375 C -3.890625 -3.609375 -4.078125 -3.328125 -4.078125 -2.90625 C -4.078125 -2.09375 -3.40625 -1.296875 -2.609375 -1.125 C -2.390625 -1.078125 -2.0625 -1.0625 -1.703125 -1.234375 C -1.484375 -1.015625 -1.21875 -0.875 -0.96875 -0.8125 C -0.71875 -0.765625 -0.46875 -0.796875 -0.296875 -0.890625 C 0 -0.359375 0.390625 -0.171875 0.640625 -0.125 C 1.296875 0.015625 1.84375 -0.75 1.84375 -1.890625 C 1.84375 -3.046875 1.296875 -4.0625 0.625 -4.203125 C -0.625 -4.46875 -0.640625 -2.984375 -0.640625 -2.59375 L -0.640625 -1.765625 C -0.640625 -1.640625 -0.640625 -1.25 -1.09375 -1.34375 C -1.28125 -1.375 -1.328125 -1.4375 -1.40625 -1.484375 C -1.25 -1.703125 -1.140625 -1.984375 -1.140625 -2.28125 C -1.140625 -3.109375 -1.8125 -3.90625 -2.609375 -4.078125 C -2.90625 -4.140625 -3.15625 -4.09375 -3.40625 -4.015625 C -3.453125 -3.984375 -3.46875 -3.984375 -3.46875 -3.984375 C -3.515625 -4 -3.515625 -4.4375 -3.515625 -4.546875 C -3.515625 -4.625 -3.515625 -4.953125 -3.46875 -5.203125 Z M -2.609375 -3.40625 C -1.890625 -3.265625 -1.6875 -2.75 -1.6875 -2.40625 C -1.6875 -1.984375 -1.9375 -1.640625 -2.609375 -1.78125 C -3.328125 -1.9375 -3.53125 -2.4375 -3.53125 -2.796875 C -3.53125 -3.203125 -3.28125 -3.546875 -2.609375 -3.40625 Z M 0.640625 -3.53125 C 1.03125 -3.453125 1.3125 -2.734375 1.3125 -2.015625 C 1.3125 -1.328125 1.046875 -0.703125 0.625 -0.78125 C 0.625 -0.78125 0.046875 -0.90625 0.046875 -1.609375 L 0.046875 -2.4375 C 0.046875 -2.625 0.046875 -3.65625 0.640625 -3.53125 Z M 0.640625 -3.53125 "/>
</g>
<g id="glyph-10-14">
<path d="M -0.328125 -3.890625 L -0.96875 -3.96875 C -0.671875 -3.484375 -0.515625 -2.96875 -0.515625 -2.4375 C -0.515625 -1.671875 -1.140625 -1.3125 -2 -1.484375 C -2.6875 -1.640625 -3.515625 -2.15625 -3.515625 -3.109375 C -3.515625 -3.6875 -3.40625 -3.9375 -3.109375 -4.328125 L -3.734375 -4.578125 C -4.015625 -4.125 -4.125 -3.875 -4.125 -3.234375 C -4.125 -1.953125 -3.046875 -0.96875 -1.984375 -0.75 C -0.875 -0.515625 0.09375 -1.140625 0.09375 -2.296875 C 0.09375 -2.921875 -0.09375 -3.4375 -0.328125 -3.890625 Z M -0.328125 -3.890625 "/>
</g>
</g>
<clipPath id="clip-0">
<path clip-rule="nonzero" d="M 0.179688 0 L 50 0 L 50 37 L 0.179688 37 Z M 0.179688 0 "/>
</clipPath>
<clipPath id="clip-1">
<path clip-rule="nonzero" d="M 0.179688 0 L 56 0 L 56 42 L 0.179688 42 Z M 0.179688 0 "/>
</clipPath>
<clipPath id="clip-2">
<path clip-rule="nonzero" d="M 164 131 L 298 131 L 298 187.320312 L 164 187.320312 Z M 164 131 "/>
</clipPath>
</defs>
<g clip-path="url(#clip-0)">
<path fill-rule="nonzero" fill="rgb(89.99939%, 89.99939%, 89.99939%)" fill-opacity="1" d="M 45.8125 0.703125 L 4.855469 0.703125 C 2.660156 0.703125 0.878906 2.484375 0.878906 4.679688 L 0.878906 32.359375 C 0.878906 34.554688 2.660156 36.335938 4.855469 36.335938 L 45.8125 36.335938 C 48.007812 36.335938 49.789062 34.554688 49.789062 32.359375 L 49.789062 4.679688 C 49.789062 2.484375 48.007812 0.703125 45.8125 0.703125 Z M 45.8125 0.703125 "/>
</g>
<g clip-path="url(#clip-1)">
<path fill="none" stroke-width="0.3985" stroke-linecap="butt" stroke-linejoin="miter" stroke="rgb(0%, 0%, 0%)" stroke-opacity="1" stroke-miterlimit="10" d="M -36.177623 32.022601 L -77.20886 32.022601 C -79.40815 32.022601 -81.192627 30.238124 -81.192627 28.038834 L -81.192627 0.308997 C -81.192627 -1.890293 -79.40815 -3.67477 -77.20886 -3.67477 L -36.177623 -3.67477 C -33.978333 -3.67477 -32.193856 -1.890293 -32.193856 0.308997 L -32.193856 28.038834 C -32.193856 30.238124 -33.978333 32.022601 -36.177623 32.022601 Z M -36.177623 32.022601 " transform="matrix(0.998191, 0, 0, -0.998191, 81.924695, 32.667813)"/>
</g>
<g fill="rgb(0%, 0%, 0%)" fill-opacity="1">
<use xlink:href="#glyph-0-0" x="15.025902" y="21.971193"/>
<use xlink:href="#glyph-0-1" x="20.55509" y="21.971193"/>
<use xlink:href="#glyph-0-2" x="24.145084" y="21.971193"/>
</g>
<g fill="rgb(0%, 0%, 0%)" fill-opacity="1">
<use xlink:href="#glyph-0-3" x="28.64998" y="21.971193"/>
<use xlink:href="#glyph-0-1" x="32.051027" y="21.971193"/>
</g>
<path fill-rule="nonzero" fill="rgb(89.99939%, 100%, 89.99939%)" fill-opacity="1" stroke-width="0.3985" stroke-linecap="butt" stroke-linejoin="miter" stroke="rgb(0%, 0%, 0%)" stroke-opacity="1" stroke-miterlimit="10" d="M 129.735714 25.334725 L -16.348794 25.334725 C -18.551997 25.334725 -20.336474 23.554161 -20.336474 21.350958 L -20.336474 -21.35127 C -20.336474 -23.55056 -18.551997 -25.335037 -16.348794 -25.335037 L 129.735714 -25.335037 C 131.938918 -25.335037 133.723395 -23.55056 133.723395 -21.35127 L 133.723395 21.350958 C 133.723395 23.554161 131.938918 25.334725 129.735714 25.334725 Z M 129.735714 25.334725 " transform="matrix(0.998191, 0, 0, -0.998191, 81.924695, 32.667813)"/>
<g fill="rgb(0%, 0%, 0%)" fill-opacity="1">
<use xlink:href="#glyph-0-4" x="75.774838" y="28.426497"/>
<use xlink:href="#glyph-0-5" x="80.747129" y="28.426497"/>
</g>
<g fill="rgb(0%, 0%, 0%)" fill-opacity="1">
<use xlink:href="#glyph-0-6" x="87.917173" y="28.426497"/>
<use xlink:href="#glyph-0-7" x="90.681767" y="28.426497"/>
<use xlink:href="#glyph-0-8" x="95.823116" y="28.426497"/>
<use xlink:href="#glyph-0-1" x="98.199871" y="28.426497"/>
<use xlink:href="#glyph-0-8" x="101.789865" y="28.426497"/>
<use xlink:href="#glyph-0-2" x="104.166621" y="28.426497"/>
<use xlink:href="#glyph-0-9" x="108.949965" y="28.426497"/>
<use xlink:href="#glyph-0-8" x="111.32672" y="28.426497"/>
<use xlink:href="#glyph-0-10" x="113.703475" y="28.426497"/>
<use xlink:href="#glyph-0-11" x="118.029369" y="28.426497"/>
</g>
<g fill="rgb(0%, 0%, 0%)" fill-opacity="1">
<use xlink:href="#glyph-0-12" x="125.756309" y="28.426497"/>
<use xlink:href="#glyph-0-13" x="134.457819" y="28.426497"/>
</g>
<g fill="rgb(0%, 0%, 0%)" fill-opacity="1">
<use xlink:href="#glyph-0-14" x="139.708559" y="28.426497"/>
<use xlink:href="#glyph-0-11" x="144.849908" y="28.426497"/>
<use xlink:href="#glyph-0-9" x="149.265302" y="28.426497"/>
</g>
<g fill="rgb(0%, 0%, 0%)" fill-opacity="1">
<use xlink:href="#glyph-0-15" x="154.953604" y="28.426497"/>
</g>
<g fill="rgb(0%, 0%, 0%)" fill-opacity="1">
<use xlink:href="#glyph-0-2" x="161.039688" y="28.426497"/>
</g>
<g fill="rgb(0%, 0%, 0%)" fill-opacity="1">
<use xlink:href="#glyph-0-3" x="165.544584" y="28.426497"/>
<use xlink:href="#glyph-0-2" x="168.945631" y="28.426497"/>
<use xlink:href="#glyph-0-16" x="173.728975" y="28.426497"/>
<use xlink:href="#glyph-0-11" x="181.624974" y="28.426497"/>
<use xlink:href="#glyph-0-1" x="186.040369" y="28.426497"/>
<use xlink:href="#glyph-0-11" x="189.630363" y="28.426497"/>
<use xlink:href="#glyph-0-3" x="194.045758" y="28.426497"/>
<use xlink:href="#glyph-0-17" x="197.446805" y="28.426497"/>
</g>
<g fill="rgb(0%, 0%, 0%)" fill-opacity="1">
<use xlink:href="#glyph-1-0" x="89.308318" y="40.359876"/>
</g>
<g fill="rgb(0%, 0%, 0%)" fill-opacity="1">
<use xlink:href="#glyph-2-0" x="104.600611" y="40.359876"/>
</g>
<g fill="rgb(0%, 0%, 0%)" fill-opacity="1">
<use xlink:href="#glyph-3-0" x="115.594692" y="32.354381"/>
</g>
<g fill="rgb(0%, 0%, 0%)" fill-opacity="1">
<use xlink:href="#glyph-0-18" x="120.090547" y="40.359876"/>
</g>
<g fill="rgb(0%, 0%, 0%)" fill-opacity="1">
<use xlink:href="#glyph-4-0" x="126.882242" y="41.977945"/>
</g>
<g fill="rgb(0%, 0%, 0%)" fill-opacity="1">
<use xlink:href="#glyph-0-19" x="131.605684" y="40.359876"/>
</g>
<g fill="rgb(0%, 0%, 0%)" fill-opacity="1">
<use xlink:href="#glyph-0-18" x="136.021079" y="40.359876"/>
</g>
<g fill="rgb(0%, 0%, 0%)" fill-opacity="1">
<use xlink:href="#glyph-4-1" x="142.820365" y="41.977945"/>
</g>
<g fill="rgb(0%, 0%, 0%)" fill-opacity="1">
<use xlink:href="#glyph-0-19" x="147.543807" y="40.359876"/>
</g>
<g fill="rgb(0%, 0%, 0%)" fill-opacity="1">
<use xlink:href="#glyph-1-1" x="152.065615" y="40.359876"/>
</g>
<g fill="rgb(0%, 0%, 0%)" fill-opacity="1">
<use xlink:href="#glyph-1-1" x="156.401453" y="40.359876"/>
</g>
<g fill="rgb(0%, 0%, 0%)" fill-opacity="1">
<use xlink:href="#glyph-1-1" x="160.747235" y="40.359876"/>
</g>
<g fill="rgb(0%, 0%, 0%)" fill-opacity="1">
<use xlink:href="#glyph-0-19" x="166.650191" y="40.359876"/>
</g>
<g fill="rgb(0%, 0%, 0%)" fill-opacity="1">
<use xlink:href="#glyph-0-18" x="171.065585" y="40.359876"/>
</g>
<g fill="rgb(0%, 0%, 0%)" fill-opacity="1">
<use xlink:href="#glyph-5-0" x="177.864872" y="41.851175"/>
</g>
<g fill="rgb(0%, 0%, 0%)" fill-opacity="1">
<use xlink:href="#glyph-3-1" x="182.928698" y="32.354381"/>
</g>
<path fill-rule="nonzero" fill="rgb(100%, 99.488831%, 90.000916%)" fill-opacity="1" stroke-width="0.3985" stroke-linecap="butt" stroke-linejoin="miter" stroke="rgb(0%, 0%, 0%)" stroke-opacity="1" stroke-miterlimit="10" d="M 271.824715 24.853385 L 152.280393 24.853385 C 150.07719 24.853385 148.292712 23.068908 148.292712 20.869618 L 148.292712 -20.869931 C 148.292712 -23.069221 150.07719 -24.853698 152.280393 -24.853698 L 271.824715 -24.853698 C 274.027918 -24.853698 275.808482 -23.069221 275.808482 -20.869931 L 275.808482 20.869618 C 275.808482 23.068908 274.027918 24.853385 271.824715 24.853385 Z M 271.824715 24.853385 " transform="matrix(0.998191, 0, 0, -0.998191, 81.924695, 32.667813)"/>
<g fill="rgb(0%, 0%, 0%)" fill-opacity="1">
<use xlink:href="#glyph-0-20" x="244.097872" y="28.908624"/>
<use xlink:href="#glyph-0-5" x="249.070163" y="28.908624"/>
</g>
<g fill="rgb(0%, 0%, 0%)" fill-opacity="1">
<use xlink:href="#glyph-0-21" x="256.240207" y="28.908624"/>
</g>
<g fill="rgb(0%, 0%, 0%)" fill-opacity="1">
<use xlink:href="#glyph-0-13" x="261.630171" y="28.908624"/>
</g>
<g fill="rgb(0%, 0%, 0%)" fill-opacity="1">
<use xlink:href="#glyph-0-3" x="266.324014" y="28.908624"/>
<use xlink:href="#glyph-0-18" x="269.725061" y="28.908624"/>
</g>
<g fill="rgb(0%, 0%, 0%)" fill-opacity="1">
<use xlink:href="#glyph-0-2" x="276.238763" y="28.908624"/>
</g>
<g fill="rgb(0%, 0%, 0%)" fill-opacity="1">
<use xlink:href="#glyph-0-3" x="280.743659" y="28.908624"/>
<use xlink:href="#glyph-0-14" x="284.144706" y="28.908624"/>
</g>
<g fill="rgb(0%, 0%, 0%)" fill-opacity="1">
<use xlink:href="#glyph-0-15" x="292.587656" y="28.908624"/>
<use xlink:href="#glyph-0-3" x="298.942245" y="28.908624"/>
<use xlink:href="#glyph-0-13" x="302.343292" y="28.908624"/>
<use xlink:href="#glyph-0-22" x="307.315583" y="28.908624"/>
<use xlink:href="#glyph-0-2" x="312.456932" y="28.908624"/>
<use xlink:href="#glyph-0-23" x="317.240277" y="28.908624"/>
<use xlink:href="#glyph-0-2" x="322.212568" y="28.908624"/>
<use xlink:href="#glyph-0-1" x="326.995912" y="28.908624"/>
<use xlink:href="#glyph-0-8" x="330.585906" y="28.908624"/>
<use xlink:href="#glyph-0-13" x="332.962662" y="28.908624"/>
<use xlink:href="#glyph-0-7" x="337.934953" y="28.908624"/>
</g>
<g fill="rgb(0%, 0%, 0%)" fill-opacity="1">
<use xlink:href="#glyph-2-1" x="267.295842" y="40.708245"/>
</g>
<g fill="rgb(0%, 0%, 0%)" fill-opacity="1">
<use xlink:href="#glyph-0-24" x="267.489491" y="40.842003"/>
</g>
<g fill="rgb(0%, 0%, 0%)" fill-opacity="1">
<use xlink:href="#glyph-2-0" x="274.836181" y="40.842003"/>
</g>
<g fill="rgb(0%, 0%, 0%)" fill-opacity="1">
<use xlink:href="#glyph-0-25" x="285.333162" y="40.842003"/>
</g>
<g fill="rgb(0%, 0%, 0%)" fill-opacity="1">
<use xlink:href="#glyph-2-2" x="288.376648" y="40.842003"/>
</g>
<g fill="rgb(0%, 0%, 0%)" fill-opacity="1">
<use xlink:href="#glyph-0-26" x="292.243642" y="40.842003"/>
</g>
<g fill="rgb(0%, 0%, 0%)" fill-opacity="1">
<use xlink:href="#glyph-2-3" x="298.876625" y="40.842003"/>
</g>
<g fill="rgb(0%, 0%, 0%)" fill-opacity="1">
<use xlink:href="#glyph-1-0" x="303.296616" y="40.842003"/>
</g>
<g fill="rgb(0%, 0%, 0%)" fill-opacity="1">
<use xlink:href="#glyph-2-4" x="315.826914" y="40.842003"/>
</g>
<path fill-rule="nonzero" fill="rgb(100%, 94.999695%, 89.99939%)" fill-opacity="1" stroke-width="0.3985" stroke-linecap="butt" stroke-linejoin="miter" stroke="rgb(0%, 0%, 0%)" stroke-opacity="1" stroke-miterlimit="10" d="M 257.783697 -39.426929 L 166.321411 -39.426929 C 164.122121 -39.426929 162.337644 -41.211406 162.337644 -43.410696 L 162.337644 -85.267645 C 162.337644 -87.466935 164.122121 -89.251412 166.321411 -89.251412 L 257.783697 -89.251412 C 259.982987 -89.251412 261.767464 -87.466935 261.767464 -85.267645 L 261.767464 -43.410696 C 261.767464 -41.211406 259.982987 -39.426929 257.783697 -39.426929 Z M 257.783697 -39.426929 " transform="matrix(0.998191, 0, 0, -0.998191, 81.924695, 32.667813)"/>
<g fill="rgb(0%, 0%, 0%)" fill-opacity="1">
<use xlink:href="#glyph-0-27" x="258.115475" y="93.191157"/>
<use xlink:href="#glyph-0-5" x="263.087766" y="93.191157"/>
</g>
<g fill="rgb(0%, 0%, 0%)" fill-opacity="1">
<use xlink:href="#glyph-0-28" x="270.25781" y="93.191157"/>
<use xlink:href="#glyph-0-13" x="276.612399" y="93.191157"/>
<use xlink:href="#glyph-0-16" x="281.58469" y="93.191157"/>
<use xlink:href="#glyph-0-22" x="289.480688" y="93.191157"/>
<use xlink:href="#glyph-0-29" x="294.622038" y="93.191157"/>
<use xlink:href="#glyph-0-1" x="299.763387" y="93.191157"/>
<use xlink:href="#glyph-0-11" x="303.353381" y="93.191157"/>
</g>
<g fill="rgb(0%, 0%, 0%)" fill-opacity="1">
<use xlink:href="#glyph-0-30" x="311.080322" y="93.191157"/>
<use xlink:href="#glyph-0-13" x="316.470285" y="93.191157"/>
<use xlink:href="#glyph-0-17" x="321.442577" y="93.191157"/>
<use xlink:href="#glyph-0-17" x="325.251352" y="93.191157"/>
</g>
<g fill="rgb(0%, 0%, 0%)" fill-opacity="1">
<use xlink:href="#glyph-1-2" x="279.051543" y="105.124537"/>
</g>
<g fill="rgb(0%, 0%, 0%)" fill-opacity="1">
<use xlink:href="#glyph-2-2" x="287.00713" y="105.124537"/>
</g>
<g fill="rgb(0%, 0%, 0%)" fill-opacity="1">
<use xlink:href="#glyph-2-1" x="290.680474" y="104.990779"/>
</g>
<g fill="rgb(0%, 0%, 0%)" fill-opacity="1">
<use xlink:href="#glyph-0-24" x="290.874123" y="105.124537"/>
<use xlink:href="#glyph-0-19" x="295.458576" y="105.124537"/>
</g>
<g fill="rgb(0%, 0%, 0%)" fill-opacity="1">
<use xlink:href="#glyph-0-24" x="299.873971" y="105.124537"/>
</g>
<g fill="rgb(0%, 0%, 0%)" fill-opacity="1">
<use xlink:href="#glyph-2-4" x="304.465499" y="105.124537"/>
</g>
<path fill-rule="nonzero" fill="rgb(100%, 89.99939%, 89.99939%)" fill-opacity="1" stroke-width="0.3985" stroke-linecap="butt" stroke-linejoin="miter" stroke="rgb(0%, 0%, 0%)" stroke-opacity="1" stroke-miterlimit="10" d="M 143.780646 -38.679483 L 41.408004 -38.679483 C 39.208714 -38.679483 37.424237 -40.46396 37.424237 -42.667164 L 37.424237 -86.011177 C 37.424237 -88.210467 39.208714 -89.994944 41.408004 -89.994944 L 143.780646 -89.994944 C 145.979936 -89.994944 147.764413 -88.210467 147.764413 -86.011177 L 147.764413 -42.667164 C 147.764413 -40.46396 145.979936 -38.679483 143.780646 -38.679483 Z M 143.780646 -38.679483 " transform="matrix(0.998191, 0, 0, -0.998191, 81.924695, 32.667813)"/>
<g fill="rgb(0%, 0%, 0%)" fill-opacity="1">
<use xlink:href="#glyph-0-31" x="133.42938" y="92.32872"/>
<use xlink:href="#glyph-0-5" x="138.401671" y="92.32872"/>
</g>
<g fill="rgb(0%, 0%, 0%)" fill-opacity="1">
<use xlink:href="#glyph-0-32" x="145.571715" y="92.32872"/>
<use xlink:href="#glyph-0-2" x="152.204752" y="92.32872"/>
<use xlink:href="#glyph-0-33" x="156.988096" y="92.32872"/>
<use xlink:href="#glyph-0-34" x="161.40349" y="92.32872"/>
<use xlink:href="#glyph-0-22" x="166.266391" y="92.32872"/>
</g>
<g fill="rgb(0%, 0%, 0%)" fill-opacity="1">
<use xlink:href="#glyph-0-3" x="171.139237" y="92.32872"/>
<use xlink:href="#glyph-0-13" x="174.540284" y="92.32872"/>
<use xlink:href="#glyph-0-22" x="179.512575" y="92.32872"/>
<use xlink:href="#glyph-0-2" x="184.653924" y="92.32872"/>
<use xlink:href="#glyph-0-23" x="189.437269" y="92.32872"/>
<use xlink:href="#glyph-0-2" x="194.40956" y="92.32872"/>
<use xlink:href="#glyph-0-1" x="199.192904" y="92.32872"/>
<use xlink:href="#glyph-0-8" x="202.782898" y="92.32872"/>
<use xlink:href="#glyph-0-13" x="205.159654" y="92.32872"/>
<use xlink:href="#glyph-0-7" x="210.131945" y="92.32872"/>
</g>
<g fill="rgb(0%, 0%, 0%)" fill-opacity="1">
<use xlink:href="#glyph-6-0" x="145.826918" y="104.262099"/>
</g>
<g fill="rgb(0%, 0%, 0%)" fill-opacity="1">
<use xlink:href="#glyph-7-0" x="152.928052" y="106.382258"/>
</g>
<g fill="rgb(0%, 0%, 0%)" fill-opacity="1">
<use xlink:href="#glyph-1-2" x="163.648629" y="104.262099"/>
</g>
<g fill="rgb(0%, 0%, 0%)" fill-opacity="1">
<use xlink:href="#glyph-2-0" x="174.366211" y="104.262099"/>
</g>
<g fill="rgb(0%, 0%, 0%)" fill-opacity="1">
<use xlink:href="#glyph-8-0" x="187.973557" y="100.234397"/>
</g>
<g fill="rgb(0%, 0%, 0%)" fill-opacity="1">
<use xlink:href="#glyph-7-1" x="193.566424" y="100.234397"/>
</g>
<path fill="none" stroke-width="0.5579" stroke-linecap="butt" stroke-linejoin="miter" stroke="rgb(0%, 0%, 0%)" stroke-opacity="1" stroke-miterlimit="10" d="M 62.616567 41.837697 L 78.269876 41.837697 " transform="matrix(0.998191, 0, 0, -0.998191, 123.55527, 143.469065)"/>
<g fill="rgb(0%, 0%, 0%)" fill-opacity="1">
<use xlink:href="#glyph-8-0" x="186.223728" y="108.170019"/>
</g>
<g fill="rgb(0%, 0%, 0%)" fill-opacity="1">
<use xlink:href="#glyph-7-0" x="191.657882" y="108.170019"/>
</g>
<path fill-rule="nonzero" fill="rgb(97.499084%, 89.99939%, 92.498779%)" fill-opacity="1" d="M 287.769531 137.046875 L 174.117188 137.046875 C 171.917969 137.046875 170.136719 138.828125 170.136719 141.023438 L 170.136719 182.648438 C 170.136719 184.84375 171.917969 186.625 174.117188 186.625 L 287.769531 186.625 C 289.96875 186.625 291.746094 184.84375 291.746094 182.648438 L 291.746094 141.023438 C 291.746094 138.828125 289.96875 137.046875 287.769531 137.046875 Z M 287.769531 137.046875 "/>
<g clip-path="url(#clip-2)">
<path fill="none" stroke-width="0.3985" stroke-linecap="butt" stroke-linejoin="miter" stroke="rgb(0%, 0%, 0%)" stroke-opacity="1" stroke-miterlimit="10" d="M 206.217783 -104.568175 L 92.359525 -104.568175 C 90.156322 -104.568175 88.371845 -106.352652 88.371845 -108.551942 L 88.371845 -150.252358 C 88.371845 -152.451648 90.156322 -154.236125 92.359525 -154.236125 L 206.217783 -154.236125 C 208.420986 -154.236125 210.20155 -152.451648 210.20155 -150.252358 L 210.20155 -108.551942 C 210.20155 -106.352652 208.420986 -104.568175 206.217783 -104.568175 Z M 206.217783 -104.568175 " transform="matrix(0.998191, 0, 0, -0.998191, 81.924695, 32.667813)"/>
</g>
<g fill="rgb(0%, 0%, 0%)" fill-opacity="1">
<use xlink:href="#glyph-0-35" x="186.871554" y="158.096563"/>
<use xlink:href="#glyph-0-5" x="191.843845" y="158.096563"/>
</g>
<g fill="rgb(0%, 0%, 0%)" fill-opacity="1">
<use xlink:href="#glyph-0-15" x="199.023834" y="158.096563"/>
</g>
<g fill="rgb(0%, 0%, 0%)" fill-opacity="1">
<use xlink:href="#glyph-0-2" x="205.109918" y="158.096563"/>
</g>
<g fill="rgb(0%, 0%, 0%)" fill-opacity="1">
<use xlink:href="#glyph-0-3" x="209.614814" y="158.096563"/>
<use xlink:href="#glyph-0-2" x="213.015861" y="158.096563"/>
<use xlink:href="#glyph-0-16" x="217.799206" y="158.096563"/>
<use xlink:href="#glyph-0-11" x="225.695204" y="158.096563"/>
<use xlink:href="#glyph-0-1" x="230.110599" y="158.096563"/>
<use xlink:href="#glyph-0-11" x="233.700593" y="158.096563"/>
<use xlink:href="#glyph-0-3" x="238.115988" y="158.096563"/>
</g>
<g fill="rgb(0%, 0%, 0%)" fill-opacity="1">
<use xlink:href="#glyph-0-36" x="244.818636" y="158.096563"/>
<use xlink:href="#glyph-0-22" x="251.660509" y="158.096563"/>
</g>
<g fill="rgb(0%, 0%, 0%)" fill-opacity="1">
<use xlink:href="#glyph-0-14" x="257.080307" y="158.096563"/>
<use xlink:href="#glyph-0-2" x="262.221656" y="158.096563"/>
<use xlink:href="#glyph-0-1" x="267.005" y="158.096563"/>
<use xlink:href="#glyph-0-11" x="270.594994" y="158.096563"/>
</g>
<g fill="rgb(0%, 0%, 0%)" fill-opacity="1">
<use xlink:href="#glyph-1-0" x="184.28524" y="170.029942"/>
</g>
<g fill="rgb(0%, 0%, 0%)" fill-opacity="1">
<use xlink:href="#glyph-5-1" x="195.194475" y="171.64801"/>
</g>
<g fill="rgb(0%, 0%, 0%)" fill-opacity="1">
<use xlink:href="#glyph-4-2" x="198.248941" y="171.64801"/>
<use xlink:href="#glyph-4-0" x="204.820337" y="171.64801"/>
</g>
<g fill="rgb(0%, 0%, 0%)" fill-opacity="1">
<use xlink:href="#glyph-2-0" x="212.309466" y="170.029942"/>
</g>
<g fill="rgb(0%, 0%, 0%)" fill-opacity="1">
<use xlink:href="#glyph-1-0" x="222.806448" y="170.029942"/>
</g>
<g fill="rgb(0%, 0%, 0%)" fill-opacity="1">
<use xlink:href="#glyph-5-1" x="233.715682" y="171.52124"/>
</g>
<g fill="rgb(0%, 0%, 0%)" fill-opacity="1">
<use xlink:href="#glyph-0-37" x="239.478242" y="170.029942"/>
</g>
<g fill="rgb(0%, 0%, 0%)" fill-opacity="1">
<use xlink:href="#glyph-9-0" x="246.561409" y="170.029942"/>
</g>
<g fill="rgb(0%, 0%, 0%)" fill-opacity="1">
<use xlink:href="#glyph-6-0" x="251.821878" y="170.029942"/>
</g>
<g fill="rgb(0%, 0%, 0%)" fill-opacity="1">
<use xlink:href="#glyph-7-0" x="258.922014" y="172.150101"/>
</g>
<g fill="rgb(0%, 0%, 0%)" fill-opacity="1">
<use xlink:href="#glyph-1-2" x="269.64259" y="170.029942"/>
</g>
<path fill="none" stroke-width="0.3985" stroke-linecap="butt" stroke-linejoin="miter" stroke="rgb(0%, 0%, 0%)" stroke-opacity="1" stroke-miterlimit="10" d="M -31.994276 14.173915 C -27.509603 14.173915 -24.9542 14.396975 -24.065875 14.236529 " transform="matrix(0.998191, 0, 0, -0.998191, 81.924695, 32.667813)"/>
<path fill-rule="nonzero" fill="rgb(0%, 0%, 0%)" fill-opacity="1" d="M 61.425781 19.085938 C 60.417969 18.703125 58.828125 17.8125 57.777344 16.917969 L 57.25 19.855469 C 58.546875 19.378906 60.347656 19.097656 61.425781 19.085938 "/>
<path fill="none" stroke-width="0.3985" stroke-linecap="butt" stroke-linejoin="miter" stroke="rgb(0%, 0%, 0%)" stroke-opacity="1" stroke-miterlimit="10" d="M 133.922975 -0.00015616 L 144.508525 -0.00015616 " transform="matrix(0.998191, 0, 0, -0.998191, 81.924695, 32.667813)"/>
<path fill-rule="nonzero" fill="rgb(0%, 0%, 0%)" fill-opacity="1" d="M 229.75 32.667969 C 228.691406 32.46875 226.96875 31.871094 225.773438 31.175781 L 225.773438 34.160156 C 226.96875 33.464844 228.691406 32.867188 229.75 32.667969 "/>
<path fill="none" stroke-width="0.3985" stroke-linecap="butt" stroke-linejoin="miter" stroke="rgb(0%, 0%, 0%)" stroke-opacity="1" stroke-miterlimit="10" d="M 212.052554 -25.053277 L 212.052554 -35.638828 " transform="matrix(0.998191, 0, 0, -0.998191, 81.924695, 32.667813)"/>
<path fill-rule="nonzero" fill="rgb(0%, 0%, 0%)" fill-opacity="1" d="M 293.59375 71.824219 C 293.792969 70.761719 294.390625 69.039062 295.085938 67.84375 L 292.101562 67.84375 C 292.796875 69.039062 293.394531 70.761719 293.59375 71.824219 "/>
<path fill="none" stroke-width="0.3985" stroke-linecap="butt" stroke-linejoin="miter" stroke="rgb(0%, 0%, 0%)" stroke-opacity="1" stroke-miterlimit="10" d="M 162.138064 -64.33917 L 151.548601 -64.33917 " transform="matrix(0.998191, 0, 0, -0.998191, 81.924695, 32.667813)"/>
<path fill-rule="nonzero" fill="rgb(0%, 0%, 0%)" fill-opacity="1" d="M 229.621094 96.890625 C 230.683594 97.089844 232.40625 97.6875 233.597656 98.382812 L 233.597656 95.398438 C 232.40625 96.09375 230.683594 96.691406 229.621094 96.890625 "/>
<path fill="none" stroke-width="0.3985" stroke-linecap="butt" stroke-linejoin="miter" stroke="rgb(0%, 0%, 0%)" stroke-opacity="1" stroke-miterlimit="10" d="M 92.594325 -90.194524 C 92.594325 -105.605207 72.765496 -129.40215 84.587657 -129.40215 " transform="matrix(0.998191, 0, 0, -0.998191, 81.924695, 32.667813)"/>
<path fill-rule="nonzero" fill="rgb(0%, 0%, 0%)" fill-opacity="1" d="M 169.9375 161.835938 C 168.878906 161.636719 167.15625 161.039062 165.960938 160.34375 L 165.960938 163.328125 C 167.15625 162.632812 168.878906 162.035156 169.9375 161.835938 "/>
<path fill="none" stroke-width="0.3985" stroke-linecap="butt" stroke-linejoin="miter" stroke="rgb(0%, 0%, 0%)" stroke-opacity="1" stroke-miterlimit="10" d="M 210.40113 -129.40215 C 267.034802 -129.40215 316.057053 -40.045234 278.543898 -2.535992 " transform="matrix(0.998191, 0, 0, -0.998191, 81.924695, 32.667813)"/>
<path fill-rule="nonzero" fill="rgb(0%, 0%, 0%)" fill-opacity="1" d="M 357.433594 32.667969 C 358.042969 33.558594 358.839844 35.199219 359.191406 36.535156 L 361.300781 34.425781 C 359.964844 34.074219 358.324219 33.277344 357.433594 32.667969 "/>
<path fill-rule="nonzero" fill="rgb(89.99939%, 89.99939%, 100%)" fill-opacity="1" d="M 58.726562 67.269531 L 58.726562 167.839844 C 58.726562 170.035156 60.507812 171.816406 62.707031 171.816406 L 72.847656 171.816406 C 75.046875 171.816406 76.824219 170.035156 76.824219 167.839844 L 76.824219 67.269531 C 76.824219 65.074219 75.046875 63.292969 72.847656 63.292969 L 62.707031 63.292969 C 60.507812 63.292969 58.726562 65.074219 58.726562 67.269531 Z M 58.726562 67.269531 "/>
<g fill="rgb(0%, 0%, 0%)" fill-opacity="1">
<use xlink:href="#glyph-10-0" x="70.010282" y="166.842716"/>
<use xlink:href="#glyph-10-1" x="70.010282" y="160.881894"/>
<use xlink:href="#glyph-10-2" x="70.010282" y="156.79166"/>
</g>
<g fill="rgb(0%, 0%, 0%)" fill-opacity="1">
<use xlink:href="#glyph-10-1" x="70.010282" y="151.788507"/>
<use xlink:href="#glyph-10-3" x="70.010282" y="147.698273"/>
<use xlink:href="#glyph-10-4" x="70.010282" y="143.276882"/>
</g>
<g fill="rgb(0%, 0%, 0%)" fill-opacity="1">
<use xlink:href="#glyph-10-5" x="70.010282" y="136.88645"/>
<use xlink:href="#glyph-10-6" x="70.010282" y="132.133902"/>
<use xlink:href="#glyph-10-4" x="70.010282" y="127.381354"/>
<use xlink:href="#glyph-10-7" x="70.010282" y="124.060836"/>
<use xlink:href="#glyph-10-8" x="70.010282" y="121.868041"/>
</g>
<g fill="rgb(0%, 0%, 0%)" fill-opacity="1">
<use xlink:href="#glyph-10-9" x="70.010282" y="116.605333"/>
<use xlink:href="#glyph-10-10" x="70.010282" y="110.725062"/>
<use xlink:href="#glyph-10-6" x="70.010282" y="106.124667"/>
<use xlink:href="#glyph-10-11" x="70.010282" y="101.372119"/>
<use xlink:href="#glyph-10-1" x="70.010282" y="97.129732"/>
<use xlink:href="#glyph-10-12" x="70.010282" y="93.039498"/>
<use xlink:href="#glyph-10-13" x="70.010282" y="89.897983"/>
<use xlink:href="#glyph-10-1" x="70.010282" y="85.297589"/>
<use xlink:href="#glyph-10-6" x="70.010282" y="81.207354"/>
<use xlink:href="#glyph-10-14" x="70.010282" y="76.454807"/>
<use xlink:href="#glyph-10-1" x="70.010282" y="72.364572"/>
</g>
</svg>
